<svg width="642" height="201" viewBox="0 0 642 201" fill="none" xmlns="http://www.w3.org/2000/svg">
<path fill-rule="evenodd" clip-rule="evenodd" d="M278.62 46.49L212.31 131.45L211.58 127.21L203.49 80.53C203.26 79.22 202.79 76.5 202 75.85C201.94 75.8 201.85 75.75 201.75 75.71C200.78 75.37 198.1 75.94 193.76 78.94C155.38 105.38 115.64 130.89 75.61 154.78C75.08 155.1 74.55 155.41 74.02 155.73C71.25 157.38 68.22 159.19 64.98 160.93C59.67 163.79 53.8 166.48 47.57 168.06C43.7 169.04 39.85 169.52 36.13 169.52C28.71 169.52 21.8 167.6 16.27 163.87C10.34 159.87 5.98999 153.84 3.67999 146.42C1.54999 139.57 1.4 132.01 3.25 125.13C6.56 112.84 15.55 101.9 28.56 94.32C31.73 92.47 35.21 90.86 38.84 89.44C39.02 87.38 39.28 85.33 39.61 83.29C40.74 76.28 42.7 69.45 45.49 62.86C49.98 52.25 56.4 42.73 64.58 34.55C72.76 26.37 82.28 19.95 92.89 15.46C103.88 10.81 115.54 8.46001 127.57 8.46001C139.6 8.46001 151.26 10.82 162.25 15.46C172.86 19.95 182.39 26.37 190.56 34.55C197.91 41.9 203.84 50.34 208.22 59.67C206.05 58.79 203.71 58.34 201.28 58.34C199.19 58.34 197.02 58.67 194.79 59.33C181.47 35.98 156.33 20.21 127.57 20.21C91.17 20.21 60.57 45.49 52.39 79.41C51.91 81.38 51.51 83.38 51.2 85.4C56.66 83.89 62.08 82.68 66.98 81.64V93.45C61.44 94.63 55.77 95.96 50.25 97.72C46.26 98.99 42.35 100.48 38.63 102.3C37.23 102.98 35.86 103.71 34.52 104.49C24.36 110.41 17.11 119.05 14.65 128.19C11.96 138.17 15.42 149.07 22.88 154.1C28.41 157.83 36.36 158.75 44.7 156.64C48.91 155.57 53.02 153.84 56.96 151.85C55.83 150.38 54.74 148.88 53.71 147.35C50.51 142.6 47.76 137.55 45.51 132.22C42.25 124.51 40.12 116.47 39.14 108.21C42.71 106.31 46.53 104.74 50.48 103.43C51.54 117.54 56.41 130.61 64.06 141.6C65.11 143.11 66.21 144.58 67.37 146.01C67.59 145.88 67.81 145.75 68.03 145.62C108.38 121.58 148.45 95.88 187.12 69.25C191.05 66.54 194.47 65.02 197.42 64.32C203.07 62.98 207 64.66 209.57 66.79C210.72 67.75 211.62 68.84 212.33 69.98C214.17 72.95 214.75 76.28 215.14 78.53L219.42 103.26L269.37 39.26L278.66 46.51L278.62 46.49Z" fill="#E1C58D"/>
<path d="M203.45 112.42C196.49 147.96 165.11 174.87 127.56 174.87C109.66 174.87 93.17 168.76 80.05 158.51C78.98 159.15 77.9 159.79 76.83 160.43C74.47 161.84 71.93 163.35 69.22 164.85C76.29 170.99 84.23 175.94 92.88 179.61C103.87 184.26 115.53 186.61 127.56 186.61C139.59 186.61 151.25 184.25 162.24 179.61C172.85 175.12 182.38 168.7 190.55 160.52C197.59 153.48 203.32 145.45 207.64 136.59L203.45 112.42Z" fill="#E1C58D"/>
<path fill-rule="evenodd" clip-rule="evenodd" d="M278.62 46.49L212.31 131.45L211.58 127.21L203.49 80.53C203.26 79.22 202.79 76.5 202 75.85C201.94 75.8 201.85 75.75 201.75 75.71C200.78 75.37 198.1 75.94 193.76 78.94C155.38 105.38 115.64 130.89 75.61 154.78C75.08 155.1 74.55 155.41 74.02 155.73C71.25 157.38 68.22 159.19 64.98 160.93C59.67 163.79 53.8 166.48 47.57 168.06C43.7 169.04 39.85 169.52 36.13 169.52C28.71 169.52 21.8 167.6 16.27 163.87C10.34 159.87 5.98999 153.84 3.67999 146.42C1.54999 139.57 1.4 132.01 3.25 125.13C6.56 112.84 15.55 101.9 28.56 94.32C31.73 92.47 35.21 90.86 38.84 89.44C39.02 87.38 39.28 85.33 39.61 83.29C40.74 76.28 42.7 69.45 45.49 62.86C49.98 52.25 56.4 42.73 64.58 34.55C72.76 26.37 82.28 19.95 92.89 15.46C103.88 10.81 115.54 8.46001 127.57 8.46001C139.6 8.46001 151.26 10.82 162.25 15.46C172.86 19.95 182.39 26.37 190.56 34.55C197.91 41.9 203.84 50.34 208.22 59.67C206.05 58.79 203.71 58.34 201.28 58.34C199.19 58.34 197.02 58.67 194.79 59.33C181.47 35.98 156.33 20.21 127.57 20.21C91.17 20.21 60.57 45.49 52.39 79.41C51.91 81.38 51.51 83.38 51.2 85.4C56.66 83.89 62.08 82.68 66.98 81.64V93.45C61.44 94.63 55.77 95.96 50.25 97.72C46.26 98.99 42.35 100.48 38.63 102.3C37.23 102.98 35.86 103.71 34.52 104.49C24.36 110.41 17.11 119.05 14.65 128.19C11.96 138.17 15.42 149.07 22.88 154.1C28.41 157.83 36.36 158.75 44.7 156.64C48.91 155.57 53.02 153.84 56.96 151.85C55.83 150.38 54.74 148.88 53.71 147.35C50.51 142.6 47.76 137.55 45.51 132.22C42.25 124.51 40.12 116.47 39.14 108.21C42.71 106.31 46.53 104.74 50.48 103.43C51.54 117.54 56.41 130.61 64.06 141.6C65.11 143.11 66.21 144.58 67.37 146.01C67.59 145.88 67.81 145.75 68.03 145.62C108.38 121.58 148.45 95.88 187.12 69.25C191.05 66.54 194.47 65.02 197.42 64.32C203.07 62.98 207 64.66 209.57 66.79C210.72 67.75 211.62 68.84 212.33 69.98C214.17 72.95 214.75 76.28 215.14 78.53L219.42 103.26L269.37 39.26L278.66 46.51L278.62 46.49Z" fill="#E1B858"/>
<path fill-rule="evenodd" clip-rule="evenodd" d="M203.45 112.42C196.49 147.96 165.11 174.87 127.56 174.87C109.66 174.87 93.17 168.76 80.05 158.51C78.98 159.15 77.9 159.79 76.83 160.43C74.47 161.84 71.93 163.35 69.22 164.85C76.29 170.99 84.23 175.94 92.88 179.61C103.87 184.26 115.53 186.61 127.56 186.61C139.59 186.61 151.25 184.25 162.24 179.61C172.85 175.12 182.38 168.7 190.55 160.52C197.59 153.48 203.32 145.45 207.64 136.59L203.45 112.42Z" fill="#E1B858"/>
<path d="M280.543 164.782V174.168H286.968V170.93L288.511 171.382V172.913C288.511 175.322 288.027 175.975 286.358 175.975H281.171C279.502 175.975 279 175.297 279 172.913V166.087C279 163.703 279.502 163.025 281.171 163.025H286.358C288.027 163.025 288.511 163.678 288.511 166.087V167.317L286.968 167.718V164.782H280.543Z" fill="#CFCFCE"/>
<path d="M300.768 163.025H307.174C308.843 163.025 309.328 163.703 309.328 166.087V172.913C309.328 175.297 308.843 175.975 307.174 175.975H300.768C299.117 175.975 298.596 175.322 298.596 172.913V166.087C298.596 163.678 299.117 163.025 300.768 163.025ZM307.802 174.168V164.782H300.122V174.168H307.802Z" fill="#CFCFCE"/>
<path d="M320.149 163.025H321.118L328.045 171.683C328.368 172.085 328.727 172.637 329.104 173.315C328.96 172.11 328.96 171.056 328.96 170.127V163.025H330.378V176H329.516L322.392 166.99C322.123 166.639 321.764 166.263 321.459 165.535C321.549 166.488 321.567 167.417 321.567 168.371V176H320.149V163.025Z" fill="#CFCFCE"/>
<path d="M342.67 164.782V168.396H348.503C350.189 168.396 350.656 169.124 350.656 171.458V172.913C350.656 175.297 350.172 175.975 348.503 175.975H343.101C341.432 175.975 340.93 175.297 340.93 172.913V172.562L342.365 172.085V174.168H349.256V170.278H343.442C341.791 170.278 341.289 169.625 341.289 167.216V166.087C341.289 163.678 341.791 163.025 343.442 163.025H348.377C349.92 163.025 350.548 163.627 350.548 165.861V166.137L349.22 166.664V164.782H342.67Z" fill="#CFCFCE"/>
<path d="M363.003 174.168H369.75V163H371.275V172.888C371.275 175.272 370.791 175.95 369.122 175.95H363.631C361.98 175.95 361.459 175.297 361.459 172.888V163H363.003V174.168Z" fill="#CFCFCE"/>
<path d="M382.222 163.025H383.765V174.193H390.782V176H382.204V163.025H382.222Z" fill="#CFCFCE"/>
<path d="M401.675 175.975H400.132V164.757H395.897V163H405.946V164.757H401.693V175.975H401.675Z" fill="#CFCFCE"/>
<path d="M416.57 163.025H418.221L423.371 176H421.666L420.482 172.813H414.219L413.034 176H411.509L416.57 163.025ZM419.854 171.131L417.359 164.506L414.865 171.131H419.854Z" fill="#CFCFCE"/>
<path d="M432.487 163.025H433.456L440.383 171.683C440.706 172.085 441.065 172.637 441.442 173.315C441.298 172.11 441.298 171.056 441.298 170.127V163.025H442.716V176H441.855L434.73 166.99C434.461 166.639 434.102 166.263 433.797 165.535C433.887 166.488 433.905 167.417 433.905 168.371V176H432.487V163.025Z" fill="#CFCFCE"/>
<path d="M455.081 164.782V174.168H461.505V170.93L463.048 171.382V172.913C463.048 175.322 462.564 175.975 460.895 175.975H455.709C454.04 175.975 453.537 175.297 453.537 172.913V166.087C453.537 163.703 454.04 163.025 455.709 163.025H460.895C462.564 163.025 463.048 163.678 463.048 166.087V167.317L461.505 167.718V164.782H455.081Z" fill="#CFCFCE"/>
<path d="M476.436 170.328L471.734 163.025H473.654L477.279 168.797L480.742 163.025H482.627L477.979 170.278V175.975H476.436V170.328Z" fill="#CFCFCE"/>
<path d="M505.92 164.782V168.396H511.752C513.439 168.396 513.906 169.124 513.906 171.458V172.913C513.906 175.297 513.421 175.975 511.752 175.975H506.351C504.682 175.975 504.179 175.297 504.179 172.913V172.562L505.615 172.085V174.168H512.506V170.278H506.692C505.041 170.278 504.538 169.625 504.538 167.216V166.087C504.538 163.678 505.041 163.025 506.692 163.025H511.627C513.17 163.025 513.798 163.627 513.798 165.861V166.137L512.47 166.664V164.782H505.92Z" fill="#CFCFCE"/>
<path d="M524.709 163.025H533.646V164.757H526.252V168.371H530.756V170.077H526.252V174.193H533.717V175.975H524.709V163V163.025Z" fill="#CFCFCE"/>
<path d="M543.498 163.025H550.981C552.327 163.025 552.937 163.728 552.937 165.535V168.421C552.937 170.228 552.327 170.93 550.981 170.93H549.617L553.852 175.975H551.555L547.787 170.93H545.059V175.975H543.516V163L543.498 163.025ZM545.041 164.707V169.249H550.353C551.035 169.249 551.358 169.023 551.358 167.919V166.037C551.358 164.958 551.035 164.707 550.353 164.707H545.041Z" fill="#CFCFCE"/>
<path d="M561.497 163.025H563.166L567.257 173.842L571.169 163.025H572.695L567.85 176H566.558L561.497 163.025Z" fill="#CFCFCE"/>
<path d="M581.811 163.025H583.354V176H581.811V163.025Z" fill="#CFCFCE"/>
<path d="M595.701 164.782V174.168H602.125V170.93L603.669 171.382V172.913C603.669 175.322 603.184 175.975 601.515 175.975H596.329C594.66 175.975 594.158 175.297 594.158 172.913V166.087C594.158 163.703 594.66 163.025 596.329 163.025H601.515C603.184 163.025 603.669 163.678 603.669 166.087V167.317L602.125 167.718V164.782H595.701Z" fill="#CFCFCE"/>
<path d="M613.862 163.025H622.799V164.757H615.405V168.371H619.909V170.077H615.405V174.193H622.87V175.975H613.862V163V163.025Z" fill="#CFCFCE"/>
<path d="M634.014 164.782V168.396H639.847C641.534 168.396 642 169.124 642 171.458V172.913C642 175.297 641.516 175.975 639.847 175.975H634.445C632.776 175.975 632.274 175.297 632.274 172.913V172.562L633.709 172.085V174.168H640.6V170.278H634.786C633.135 170.278 632.633 169.625 632.633 167.216V166.087C632.633 163.678 633.135 163.025 634.786 163.025H639.721C641.264 163.025 641.892 163.627 641.892 165.861V166.137L640.564 166.664V164.782H634.014Z" fill="#CFCFCE"/>
<path d="M280.543 164.782V174.168H286.968V170.93L288.511 171.382V172.913C288.511 175.322 288.027 175.975 286.358 175.975H281.171C279.502 175.975 279 175.297 279 172.913V166.087C279 163.703 279.502 163.025 281.171 163.025H286.358C288.027 163.025 288.511 163.678 288.511 166.087V167.317L286.968 167.718V164.782H280.543Z" fill="black"/>
<path d="M300.768 163.025H307.174C308.843 163.025 309.328 163.703 309.328 166.087V172.913C309.328 175.297 308.843 175.975 307.174 175.975H300.768C299.117 175.975 298.596 175.322 298.596 172.913V166.087C298.596 163.678 299.117 163.025 300.768 163.025ZM307.802 174.168V164.782H300.122V174.168H307.802Z" fill="black"/>
<path d="M320.149 163.025H321.118L328.045 171.683C328.368 172.085 328.727 172.637 329.104 173.315C328.96 172.11 328.96 171.056 328.96 170.127V163.025H330.378V176H329.516L322.392 166.99C322.123 166.639 321.764 166.263 321.459 165.535C321.549 166.488 321.567 167.417 321.567 168.371V176H320.149V163.025Z" fill="black"/>
<path d="M342.67 164.782V168.396H348.503C350.189 168.396 350.656 169.124 350.656 171.458V172.913C350.656 175.297 350.172 175.975 348.503 175.975H343.101C341.432 175.975 340.93 175.297 340.93 172.913V172.562L342.365 172.085V174.168H349.256V170.278H343.442C341.791 170.278 341.289 169.625 341.289 167.216V166.087C341.289 163.678 341.791 163.025 343.442 163.025H348.377C349.92 163.025 350.548 163.627 350.548 165.861V166.137L349.22 166.664V164.782H342.67Z" fill="black"/>
<path d="M363.003 174.168H369.75V163H371.275V172.888C371.275 175.272 370.791 175.95 369.122 175.95H363.631C361.98 175.95 361.459 175.297 361.459 172.888V163H363.003V174.168Z" fill="black"/>
<path d="M382.222 163.025H383.765V174.193H390.782V176H382.204V163.025H382.222Z" fill="black"/>
<path d="M401.675 175.975H400.132V164.757H395.897V163H405.946V164.757H401.693V175.975H401.675Z" fill="black"/>
<path d="M416.57 163.025H418.221L423.371 176H421.666L420.482 172.813H414.219L413.034 176H411.509L416.57 163.025ZM419.854 171.131L417.359 164.506L414.865 171.131H419.854Z" fill="black"/>
<path d="M432.487 163.025H433.456L440.383 171.683C440.706 172.085 441.065 172.637 441.442 173.315C441.298 172.11 441.298 171.056 441.298 170.127V163.025H442.716V176H441.855L434.73 166.99C434.461 166.639 434.102 166.263 433.797 165.535C433.887 166.488 433.905 167.417 433.905 168.371V176H432.487V163.025Z" fill="black"/>
<path d="M455.081 164.782V174.168H461.505V170.93L463.048 171.382V172.913C463.048 175.322 462.564 175.975 460.895 175.975H455.709C454.04 175.975 453.537 175.297 453.537 172.913V166.087C453.537 163.703 454.04 163.025 455.709 163.025H460.895C462.564 163.025 463.048 163.678 463.048 166.087V167.317L461.505 167.718V164.782H455.081Z" fill="black"/>
<path d="M476.436 170.328L471.734 163.025H473.654L477.279 168.797L480.742 163.025H482.627L477.979 170.278V175.975H476.436V170.328Z" fill="black"/>
<path d="M505.92 164.782V168.396H511.752C513.439 168.396 513.906 169.124 513.906 171.458V172.913C513.906 175.297 513.421 175.975 511.752 175.975H506.351C504.682 175.975 504.179 175.297 504.179 172.913V172.562L505.615 172.085V174.168H512.506V170.278H506.692C505.041 170.278 504.538 169.625 504.538 167.216V166.087C504.538 163.678 505.041 163.025 506.692 163.025H511.627C513.17 163.025 513.798 163.627 513.798 165.861V166.137L512.47 166.664V164.782H505.92Z" fill="black"/>
<path d="M524.709 163.025H533.646V164.757H526.252V168.371H530.756V170.077H526.252V174.193H533.717V175.975H524.709V163V163.025Z" fill="black"/>
<path d="M543.498 163.025H550.981C552.327 163.025 552.937 163.728 552.937 165.535V168.421C552.937 170.228 552.327 170.93 550.981 170.93H549.617L553.852 175.975H551.555L547.787 170.93H545.059V175.975H543.516V163L543.498 163.025ZM545.041 164.707V169.249H550.353C551.035 169.249 551.358 169.023 551.358 167.919V166.037C551.358 164.958 551.035 164.707 550.353 164.707H545.041Z" fill="black"/>
<path d="M561.497 163.025H563.166L567.257 173.842L571.169 163.025H572.695L567.85 176H566.558L561.497 163.025Z" fill="black"/>
<path d="M581.811 163.025H583.354V176H581.811V163.025Z" fill="black"/>
<path d="M595.701 164.782V174.168H602.125V170.93L603.669 171.382V172.913C603.669 175.322 603.184 175.975 601.515 175.975H596.329C594.66 175.975 594.158 175.297 594.158 172.913V166.087C594.158 163.703 594.66 163.025 596.329 163.025H601.515C603.184 163.025 603.669 163.678 603.669 166.087V167.317L602.125 167.718V164.782H595.701Z" fill="black"/>
<path d="M613.862 163.025H622.799V164.757H615.405V168.371H619.909V170.077H615.405V174.193H622.87V175.975H613.862V163V163.025Z" fill="black"/>
<path d="M634.014 164.782V168.396H639.847C641.534 168.396 642 169.124 642 171.458V172.913C642 175.297 641.516 175.975 639.847 175.975H634.445C632.776 175.975 632.274 175.297 632.274 172.913V172.562L633.709 172.085V174.168H640.6V170.278H634.786C633.135 170.278 632.633 169.625 632.633 167.216V166.087C632.633 163.678 633.135 163.025 634.786 163.025H639.721C641.264 163.025 641.892 163.627 641.892 165.861V166.137L640.564 166.664V164.782H634.014Z" fill="black"/>
<path d="M339.511 137.843C339.511 143.19 338.346 146.799 336.001 148.669C334 150.276 330.227 151.08 324.683 151.08H293.828C288.284 151.08 284.511 150.276 282.51 148.669C280.165 146.799 279 143.19 279 137.843V112.599C279 107.251 280.165 103.643 282.51 101.773C284.511 100.165 288.284 99.3613 293.828 99.3613H324.683C330.227 99.3613 334 100.165 336.001 101.773C338.346 103.643 339.511 107.251 339.511 112.599V118.717L323.485 121.128V111.713H295.026V138.368H323.485V127.542L339.511 130.642V137.859V137.843Z" fill="#010101"/>
<path d="M418.475 151.064H400.334L394.018 140.549H363.755L357.735 151.064H341.102L372.662 99.3611H386.489L418.459 151.064H418.475ZM387.014 128.214L379.206 114.485L371.087 128.214H387.014Z" fill="#010101"/>
<path d="M488.402 151.064H477.477L438.897 120.898C438.766 120.833 438.569 120.702 438.29 120.505C438.356 121.308 438.389 121.981 438.389 122.506V151.064H423.56V99.3611H434.485L471.457 128.017C471.917 128.411 472.655 128.985 473.655 129.723V128.214C473.59 127.476 473.557 126.951 473.557 126.607V99.3611H488.385V151.064H488.402Z" fill="#010101"/>
<path d="M506.937 99.3611H548.617C556.13 99.3611 559.542 102.166 559.542 109.383V115.403C559.542 119.717 558.131 123.326 550.93 124.228C556.737 124.933 559.853 128.444 559.853 134.349V140.959C559.853 147.865 555.047 151.08 545.517 151.08H506.937V99.3775V99.3611ZM550.733 110.778C550.733 107.071 549.126 106.267 545.419 106.267H515.565V120.603H545.419C549.126 120.603 550.733 119.603 550.733 115.994V110.778ZM551.127 133.529C551.127 128.723 549.618 127.312 545.419 127.312H515.565V143.945H545.419C549.733 143.945 551.127 142.534 551.127 137.826V133.512V133.529Z" fill="#010101"/>
<path d="M570.565 99.3611H579.176V151.064H570.565V99.3611Z" fill="#010101"/>
<path d="M589.904 147.553L628.172 106.365H593.201V99.3447H642V102.248L603.026 143.83H642V151.047H589.904V147.537V147.553Z" fill="#010101"/>
<path d="M339.511 137.843C339.511 143.19 338.346 146.799 336.001 148.669C334 150.276 330.227 151.08 324.683 151.08H293.828C288.284 151.08 284.511 150.276 282.51 148.669C280.165 146.799 279 143.19 279 137.843V112.599C279 107.251 280.165 103.643 282.51 101.773C284.511 100.165 288.284 99.3613 293.828 99.3613H324.683C330.227 99.3613 334 100.165 336.001 101.773C338.346 103.643 339.511 107.251 339.511 112.599V118.717L323.485 121.128V111.713H295.026V138.368H323.485V127.542L339.511 130.642V137.859V137.843Z" fill="#1A2044"/>
<path d="M418.475 151.064H400.334L394.018 140.549H363.755L357.735 151.064H341.102L372.662 99.3611H386.489L418.459 151.064H418.475ZM387.014 128.214L379.206 114.485L371.087 128.214H387.014Z" fill="#1A2044"/>
<path d="M488.402 151.064H477.477L438.897 120.898C438.766 120.833 438.569 120.702 438.29 120.505C438.356 121.308 438.389 121.981 438.389 122.506V151.064H423.56V99.3611H434.485L471.457 128.017C471.917 128.411 472.655 128.985 473.655 129.723V128.214C473.59 127.476 473.557 126.951 473.557 126.607V99.3611H488.385V151.064H488.402Z" fill="#1A2044"/>
<path d="M506.937 99.3611H548.617C556.13 99.3611 559.542 102.166 559.542 109.383V115.403C559.542 119.717 558.131 123.326 550.93 124.228C556.737 124.933 559.853 128.444 559.853 134.349V140.959C559.853 147.865 555.047 151.08 545.517 151.08H506.937V99.3775V99.3611ZM550.733 110.778C550.733 107.071 549.126 106.267 545.419 106.267H515.565V120.603H545.419C549.126 120.603 550.733 119.603 550.733 115.994V110.778ZM551.127 133.529C551.127 128.723 549.618 127.312 545.419 127.312H515.565V143.945H545.419C549.733 143.945 551.127 142.534 551.127 137.826V133.512V133.529Z" fill="#1A2044"/>
<path d="M570.565 99.3611H579.176V151.064H570.565V99.3611Z" fill="#1A2044"/>
<path d="M589.904 147.553L628.172 106.365H593.201V99.3447H642V102.248L603.026 143.83H642V151.047H589.904V147.537V147.553Z" fill="#1A2044"/>
</svg>
