<?xml version="1.0" encoding="UTF-8"?>
<svg id="Layer_1" xmlns="http://www.w3.org/2000/svg" version="1.1" viewBox="0 0 841.89 595.28">
  <!-- Generator: Adobe Illustrator 30.2.1, SVG Export Plug-In . SVG Version: 2.1.1 Build 1)  -->
  <defs>
    <style>
      .st0, .st1 {
        fill: #e1c58d;
      }

      .st0, .st2 {
        fill-rule: evenodd;
      }

      .st3 {
        fill: #cfcfce;
      }

      .st2 {
        fill: #e1b858;
      }

      .st4 {
        fill: #1a2044;
      }

      .st5 {
        fill: #010101;
      }
    </style>
  </defs>
  <g>
    <g>
      <path class="st0" d="M448.62,246.49l-66.31,84.96-.73-4.24-8.09-46.68c-.23-1.31-.7-4.03-1.49-4.68-.06-.05-.15-.1-.25-.14-.97-.34-3.65.23-7.99,3.23-38.38,26.44-78.12,51.95-118.15,75.84-.53.32-1.06.63-1.59.95-2.77,1.65-5.8,3.46-9.04,5.2-5.31,2.86-11.18,5.55-17.41,7.13-3.87.98-7.72,1.46-11.44,1.46-7.42,0-14.33-1.92-19.86-5.65-5.93-4-10.28-10.03-12.59-17.45-2.13-6.85-2.28-14.41-.43-21.29,3.31-12.29,12.3-23.23,25.31-30.81,3.17-1.85,6.65-3.46,10.28-4.88.18-2.06.44-4.11.77-6.15,1.13-7.01,3.09-13.84,5.88-20.43,4.49-10.61,10.91-20.13,19.09-28.31,8.18-8.18,17.7-14.6,28.31-19.09,10.99-4.65,22.65-7,34.68-7s23.69,2.36,34.68,7c10.61,4.49,20.14,10.91,28.31,19.09,7.35,7.35,13.28,15.79,17.66,25.12-2.17-.88-4.51-1.33-6.94-1.33-2.09,0-4.26.33-6.49.99-13.32-23.35-38.46-39.12-67.22-39.12-36.4,0-67,25.28-75.18,59.2-.48,1.97-.88,3.97-1.19,5.99,5.46-1.51,10.88-2.72,15.78-3.76v11.81c-5.54,1.18-11.21,2.51-16.73,4.27-3.99,1.27-7.9,2.76-11.62,4.58-1.4.68-2.77,1.41-4.11,2.19-10.16,5.92-17.41,14.56-19.87,23.7-2.69,9.98.77,20.88,8.23,25.91,5.53,3.73,13.48,4.65,21.82,2.54,4.21-1.07,8.32-2.8,12.26-4.79-1.13-1.47-2.22-2.97-3.25-4.5-3.2-4.75-5.95-9.8-8.2-15.13-3.26-7.71-5.39-15.75-6.37-24.01,3.57-1.9,7.39-3.47,11.34-4.78,1.06,14.11,5.93,27.18,13.58,38.17,1.05,1.51,2.15,2.98,3.31,4.41.22-.13.44-.26.66-.39,40.35-24.04,80.42-49.74,119.09-76.37,3.93-2.71,7.35-4.23,10.3-4.93,5.65-1.34,9.58.34,12.15,2.47,1.15.96,2.05,2.05,2.76,3.19,1.84,2.97,2.42,6.3,2.81,8.55l4.28,24.73,49.95-64,9.29,7.25Z"/>
      <path class="st1" d="M373.45,312.42c-6.96,35.54-38.34,62.45-75.89,62.45-17.9,0-34.39-6.11-47.51-16.36-1.07.64-2.15,1.28-3.22,1.92-2.36,1.41-4.9,2.92-7.61,4.42,7.07,6.14,15.01,11.09,23.66,14.76,10.99,4.65,22.65,7,34.68,7s23.69-2.36,34.68-7c10.61-4.49,20.14-10.91,28.31-19.09,7.04-7.04,12.77-15.07,17.09-23.93l-4.19-24.17Z"/>
    </g>
    <g>
      <path class="st2" d="M448.62,246.49l-66.31,84.96-.73-4.24-8.09-46.68c-.23-1.31-.7-4.03-1.49-4.68-.06-.05-.15-.1-.25-.14-.97-.34-3.65.23-7.99,3.23-38.38,26.44-78.12,51.95-118.15,75.84-.53.32-1.06.63-1.59.95-2.77,1.65-5.8,3.46-9.04,5.2-5.31,2.86-11.18,5.55-17.41,7.13-3.87.98-7.72,1.46-11.44,1.46-7.42,0-14.33-1.92-19.86-5.65-5.93-4-10.28-10.03-12.59-17.45-2.13-6.85-2.28-14.41-.43-21.29,3.31-12.29,12.3-23.23,25.31-30.81,3.17-1.85,6.65-3.46,10.28-4.88.18-2.06.44-4.11.77-6.15,1.13-7.01,3.09-13.84,5.88-20.43,4.49-10.61,10.91-20.13,19.09-28.31,8.18-8.18,17.7-14.6,28.31-19.09,10.99-4.65,22.65-7,34.68-7s23.69,2.36,34.68,7c10.61,4.49,20.14,10.91,28.31,19.09,7.35,7.35,13.28,15.79,17.66,25.12-2.17-.88-4.51-1.33-6.94-1.33-2.09,0-4.26.33-6.49.99-13.32-23.35-38.46-39.12-67.22-39.12-36.4,0-67,25.28-75.18,59.2-.48,1.97-.88,3.97-1.19,5.99,5.46-1.51,10.88-2.72,15.78-3.76v11.81c-5.54,1.18-11.21,2.51-16.73,4.27-3.99,1.27-7.9,2.76-11.62,4.58-1.4.68-2.77,1.41-4.11,2.19-10.16,5.92-17.41,14.56-19.87,23.7-2.69,9.98.77,20.88,8.23,25.91,5.53,3.73,13.48,4.65,21.82,2.54,4.21-1.07,8.32-2.8,12.26-4.79-1.13-1.47-2.22-2.97-3.25-4.5-3.2-4.75-5.95-9.8-8.2-15.13-3.26-7.71-5.39-15.75-6.37-24.01,3.57-1.9,7.39-3.47,11.34-4.78,1.06,14.11,5.93,27.18,13.58,38.17,1.05,1.51,2.15,2.98,3.31,4.41.22-.13.44-.26.66-.39,40.35-24.04,80.42-49.74,119.09-76.37,3.93-2.71,7.35-4.23,10.3-4.93,5.65-1.34,9.58.34,12.15,2.47,1.15.96,2.05,2.05,2.76,3.19,1.84,2.97,2.42,6.3,2.81,8.55l4.28,24.73,49.95-64,9.29,7.25Z"/>
      <path class="st2" d="M373.45,312.42c-6.96,35.54-38.34,62.45-75.89,62.45-17.9,0-34.39-6.11-47.51-16.36-1.07.64-2.15,1.28-3.22,1.92-2.36,1.41-4.9,2.92-7.61,4.42,7.07,6.14,15.01,11.09,23.66,14.76,10.99,4.65,22.65,7,34.68,7s23.69-2.36,34.68-7c10.61-4.49,20.14-10.91,28.31-19.09,7.04-7.04,12.77-15.07,17.09-23.93l-4.19-24.17Z"/>
    </g>
  </g>
  <g>
    <g>
      <path class="st5" d="M485.51,364.01c0,3.26-.71,5.46-2.14,6.6-1.22.98-3.52,1.47-6.9,1.47h-18.81c-3.38,0-5.68-.49-6.9-1.47-1.43-1.14-2.14-3.34-2.14-6.6v-15.39c0-3.26.71-5.46,2.14-6.6,1.22-.98,3.52-1.47,6.9-1.47h18.81c3.38,0,5.68.49,6.9,1.47,1.43,1.14,2.14,3.34,2.14,6.6v3.73l-9.77,1.47v-5.74h-17.35v16.25h17.35v-6.6l9.77,1.89v4.4Z"/>
      <path class="st5" d="M533.65,372.07h-11.06l-3.85-6.41h-18.45l-3.67,6.41h-10.14l19.24-31.52h8.43l19.49,31.52ZM514.47,358.14l-4.76-8.37-4.95,8.37h9.71Z"/>
      <path class="st5" d="M576.28,372.07h-6.66l-23.52-18.39c-.08-.04-.2-.12-.37-.24.04.49.06.9.06,1.22v17.41h-9.04v-31.52h6.66l22.54,17.47c.28.24.73.59,1.34,1.04v-.92c-.04-.45-.06-.77-.06-.98v-16.61h9.04v31.52Z"/>
      <path class="st5" d="M587.58,340.55h25.41c4.58,0,6.66,1.71,6.66,6.11v3.67c0,2.63-.86,4.83-5.25,5.38,3.54.43,5.44,2.57,5.44,6.17v4.03c0,4.21-2.93,6.17-8.74,6.17h-23.52v-31.52ZM614.28,347.51c0-2.26-.98-2.75-3.24-2.75h-18.2v8.74h18.2c2.26,0,3.24-.61,3.24-2.81v-3.18ZM614.52,361.38c0-2.93-.92-3.79-3.48-3.79h-18.2v10.14h18.2c2.63,0,3.48-.86,3.48-3.73v-2.63Z"/>
      <path class="st5" d="M626.37,340.55h5.25v31.52h-5.25v-31.52Z"/>
      <path class="st5" d="M638.16,369.93l23.33-25.11h-21.32v-4.28h29.75v1.77l-23.76,25.35h23.76v4.4h-31.76v-2.14Z"/>
    </g>
    <g>
      <path class="st4" d="M485.51,364.01c0,3.26-.71,5.46-2.14,6.6-1.22.98-3.52,1.47-6.9,1.47h-18.81c-3.38,0-5.68-.49-6.9-1.47-1.43-1.14-2.14-3.34-2.14-6.6v-15.39c0-3.26.71-5.46,2.14-6.6,1.22-.98,3.52-1.47,6.9-1.47h18.81c3.38,0,5.68.49,6.9,1.47,1.43,1.14,2.14,3.34,2.14,6.6v3.73l-9.77,1.47v-5.74h-17.35v16.25h17.35v-6.6l9.77,1.89v4.4Z"/>
      <path class="st4" d="M533.65,372.07h-11.06l-3.85-6.41h-18.45l-3.67,6.41h-10.14l19.24-31.52h8.43l19.49,31.52ZM514.47,358.14l-4.76-8.37-4.95,8.37h9.71Z"/>
      <path class="st4" d="M576.28,372.07h-6.66l-23.52-18.39c-.08-.04-.2-.12-.37-.24.04.49.06.9.06,1.22v17.41h-9.04v-31.52h6.66l22.54,17.47c.28.24.73.59,1.34,1.04v-.92c-.04-.45-.06-.77-.06-.98v-16.61h9.04v31.52Z"/>
      <path class="st4" d="M587.58,340.55h25.41c4.58,0,6.66,1.71,6.66,6.11v3.67c0,2.63-.86,4.83-5.25,5.38,3.54.43,5.44,2.57,5.44,6.17v4.03c0,4.21-2.93,6.17-8.74,6.17h-23.52v-31.52ZM614.28,347.51c0-2.26-.98-2.75-3.24-2.75h-18.2v8.74h18.2c2.26,0,3.24-.61,3.24-2.81v-3.18ZM614.52,361.38c0-2.93-.92-3.79-3.48-3.79h-18.2v10.14h18.2c2.63,0,3.48-.86,3.48-3.73v-2.63Z"/>
      <path class="st4" d="M626.37,340.55h5.25v31.52h-5.25v-31.52Z"/>
      <path class="st4" d="M638.16,369.93l23.33-25.11h-21.32v-4.28h29.75v1.77l-23.76,25.35h23.76v4.4h-31.76v-2.14Z"/>
    </g>
  </g>
  <g>
    <g>
      <path class="st3" d="M458.99,382.35v3.74h3.58v-1.29l.86.18v.61c0,.96-.27,1.22-1.2,1.22h-2.89c-.93,0-1.21-.27-1.21-1.22v-2.72c0-.95.28-1.22,1.21-1.22h2.89c.93,0,1.2.26,1.2,1.22v.49l-.86.16v-1.17h-3.58Z"/>
      <path class="st3" d="M470.26,381.65h3.57c.93,0,1.2.27,1.2,1.22v2.72c0,.95-.27,1.22-1.2,1.22h-3.57c-.92,0-1.21-.26-1.21-1.22v-2.72c0-.96.29-1.22,1.21-1.22ZM474.18,386.09v-3.74h-4.28v3.74h4.28Z"/>
      <path class="st3" d="M481.06,381.65h.54l3.86,3.45c.18.16.38.38.59.65-.08-.48-.08-.9-.08-1.27v-2.83h.79v5.17h-.48l-3.97-3.59c-.15-.14-.35-.29-.52-.58.05.38.06.75.06,1.13v3.04h-.79v-5.17Z"/>
      <path class="st3" d="M493.61,382.35v1.44h3.25c.94,0,1.2.29,1.2,1.22v.58c0,.95-.27,1.22-1.2,1.22h-3.01c-.93,0-1.21-.27-1.21-1.22v-.14l.8-.19v.83h3.84v-1.55h-3.24c-.92,0-1.2-.26-1.2-1.22v-.45c0-.96.28-1.22,1.2-1.22h2.75c.86,0,1.21.24,1.21,1.13v.11l-.74.21v-.75h-3.65Z"/>
      <path class="st3" d="M504.94,386.09h3.76v-4.45h.85v3.94c0,.95-.27,1.22-1.2,1.22h-3.06c-.92,0-1.21-.26-1.21-1.22v-3.94h.86v4.45Z"/>
      <path class="st3" d="M515.65,381.65h.86v4.45h3.91v.72h-4.78v-5.17Z"/>
      <path class="st3" d="M526.49,386.81h-.86v-4.47h-2.36v-.7h5.6v.7h-2.37v4.47Z"/>
      <path class="st3" d="M534.79,381.65h.92l2.87,5.17h-.95l-.66-1.27h-3.49l-.66,1.27h-.85l2.82-5.17ZM536.62,384.88l-1.39-2.64-1.39,2.64h2.78Z"/>
      <path class="st3" d="M543.66,381.65h.54l3.86,3.45c.18.16.38.38.59.65-.08-.48-.08-.9-.08-1.27v-2.83h.79v5.17h-.48l-3.97-3.59c-.15-.14-.35-.29-.52-.58.05.38.06.75.06,1.13v3.04h-.79v-5.17Z"/>
      <path class="st3" d="M556.25,382.35v3.74h3.58v-1.29l.86.18v.61c0,.96-.27,1.22-1.2,1.22h-2.89c-.93,0-1.21-.27-1.21-1.22v-2.72c0-.95.28-1.22,1.21-1.22h2.89c.93,0,1.2.26,1.2,1.22v.49l-.86.16v-1.17h-3.58Z"/>
      <path class="st3" d="M568.15,384.56l-2.62-2.91h1.07l2.02,2.3,1.93-2.3h1.05l-2.59,2.89v2.27h-.86v-2.25Z"/>
      <path class="st3" d="M584.58,382.35v1.44h3.25c.94,0,1.2.29,1.2,1.22v.58c0,.95-.27,1.22-1.2,1.22h-3.01c-.93,0-1.21-.27-1.21-1.22v-.14l.8-.19v.83h3.84v-1.55h-3.24c-.92,0-1.2-.26-1.2-1.22v-.45c0-.96.28-1.22,1.2-1.22h2.75c.86,0,1.21.24,1.21,1.13v.11l-.74.21v-.75h-3.65Z"/>
      <path class="st3" d="M595.05,381.65h4.98v.69h-4.12v1.44h2.51v.68h-2.51v1.64h4.16v.71h-5.02v-5.17Z"/>
      <path class="st3" d="M605.52,381.65h4.17c.75,0,1.09.28,1.09,1v1.15c0,.72-.34,1-1.09,1h-.76l2.36,2.01h-1.28l-2.1-2.01h-1.52v2.01h-.86v-5.17ZM606.38,382.32v1.81h2.96c.38,0,.56-.09.56-.53v-.75c0-.43-.18-.53-.56-.53h-2.96Z"/>
      <path class="st3" d="M615.55,381.65h.93l2.28,4.31,2.18-4.31h.85l-2.7,5.17h-.72l-2.82-5.17Z"/>
      <path class="st3" d="M626.87,381.65h.86v5.17h-.86v-5.17Z"/>
      <path class="st3" d="M634.61,382.35v3.74h3.58v-1.29l.86.18v.61c0,.96-.27,1.22-1.2,1.22h-2.89c-.93,0-1.21-.27-1.21-1.22v-2.72c0-.95.28-1.22,1.21-1.22h2.89c.93,0,1.2.26,1.2,1.22v.49l-.86.16v-1.17h-3.58Z"/>
      <path class="st3" d="M644.73,381.65h4.98v.69h-4.12v1.44h2.51v.68h-2.51v1.64h4.16v.71h-5.02v-5.17Z"/>
      <path class="st3" d="M655.96,382.35v1.44h3.25c.94,0,1.2.29,1.2,1.22v.58c0,.95-.27,1.22-1.2,1.22h-3.01c-.93,0-1.21-.27-1.21-1.22v-.14l.8-.19v.83h3.84v-1.55h-3.24c-.92,0-1.2-.26-1.2-1.22v-.45c0-.96.28-1.22,1.2-1.22h2.75c.86,0,1.21.24,1.21,1.13v.11l-.74.21v-.75h-3.65Z"/>
    </g>
    <g>
      <path d="M458.99,382.35v3.74h3.58v-1.29l.86.18v.61c0,.96-.27,1.22-1.2,1.22h-2.89c-.93,0-1.21-.27-1.21-1.22v-2.72c0-.95.28-1.22,1.21-1.22h2.89c.93,0,1.2.26,1.2,1.22v.49l-.86.16v-1.17h-3.58Z"/>
      <path d="M470.26,381.65h3.57c.93,0,1.2.27,1.2,1.22v2.72c0,.95-.27,1.22-1.2,1.22h-3.57c-.92,0-1.21-.26-1.21-1.22v-2.72c0-.96.29-1.22,1.21-1.22ZM474.18,386.09v-3.74h-4.28v3.74h4.28Z"/>
      <path d="M481.06,381.65h.54l3.86,3.45c.18.16.38.38.59.65-.08-.48-.08-.9-.08-1.27v-2.83h.79v5.17h-.48l-3.97-3.59c-.15-.14-.35-.29-.52-.58.05.38.06.75.06,1.13v3.04h-.79v-5.17Z"/>
      <path d="M493.61,382.35v1.44h3.25c.94,0,1.2.29,1.2,1.22v.58c0,.95-.27,1.22-1.2,1.22h-3.01c-.93,0-1.21-.27-1.21-1.22v-.14l.8-.19v.83h3.84v-1.55h-3.24c-.92,0-1.2-.26-1.2-1.22v-.45c0-.96.28-1.22,1.2-1.22h2.75c.86,0,1.21.24,1.21,1.13v.11l-.74.21v-.75h-3.65Z"/>
      <path d="M504.94,386.09h3.76v-4.45h.85v3.94c0,.95-.27,1.22-1.2,1.22h-3.06c-.92,0-1.21-.26-1.21-1.22v-3.94h.86v4.45Z"/>
      <path d="M515.65,381.65h.86v4.45h3.91v.72h-4.78v-5.17Z"/>
      <path d="M526.49,386.81h-.86v-4.47h-2.36v-.7h5.6v.7h-2.37v4.47Z"/>
      <path d="M534.79,381.65h.92l2.87,5.17h-.95l-.66-1.27h-3.49l-.66,1.27h-.85l2.82-5.17ZM536.62,384.88l-1.39-2.64-1.39,2.64h2.78Z"/>
      <path d="M543.66,381.65h.54l3.86,3.45c.18.16.38.38.59.65-.08-.48-.08-.9-.08-1.27v-2.83h.79v5.17h-.48l-3.97-3.59c-.15-.14-.35-.29-.52-.58.05.38.06.75.06,1.13v3.04h-.79v-5.17Z"/>
      <path d="M556.25,382.35v3.74h3.58v-1.29l.86.18v.61c0,.96-.27,1.22-1.2,1.22h-2.89c-.93,0-1.21-.27-1.21-1.22v-2.72c0-.95.28-1.22,1.21-1.22h2.89c.93,0,1.2.26,1.2,1.22v.49l-.86.16v-1.17h-3.58Z"/>
      <path d="M568.15,384.56l-2.62-2.91h1.07l2.02,2.3,1.93-2.3h1.05l-2.59,2.89v2.27h-.86v-2.25Z"/>
      <path d="M584.58,382.35v1.44h3.25c.94,0,1.2.29,1.2,1.22v.58c0,.95-.27,1.22-1.2,1.22h-3.01c-.93,0-1.21-.27-1.21-1.22v-.14l.8-.19v.83h3.84v-1.55h-3.24c-.92,0-1.2-.26-1.2-1.22v-.45c0-.96.28-1.22,1.2-1.22h2.75c.86,0,1.21.24,1.21,1.13v.11l-.74.21v-.75h-3.65Z"/>
      <path d="M595.05,381.65h4.98v.69h-4.12v1.44h2.51v.68h-2.51v1.64h4.16v.71h-5.02v-5.17Z"/>
      <path d="M605.52,381.65h4.17c.75,0,1.09.28,1.09,1v1.15c0,.72-.34,1-1.09,1h-.76l2.36,2.01h-1.28l-2.1-2.01h-1.52v2.01h-.86v-5.17ZM606.38,382.32v1.81h2.96c.38,0,.56-.09.56-.53v-.75c0-.43-.18-.53-.56-.53h-2.96Z"/>
      <path d="M615.55,381.65h.93l2.28,4.31,2.18-4.31h.85l-2.7,5.17h-.72l-2.82-5.17Z"/>
      <path d="M626.87,381.65h.86v5.17h-.86v-5.17Z"/>
      <path d="M634.61,382.35v3.74h3.58v-1.29l.86.18v.61c0,.96-.27,1.22-1.2,1.22h-2.89c-.93,0-1.21-.27-1.21-1.22v-2.72c0-.95.28-1.22,1.21-1.22h2.89c.93,0,1.2.26,1.2,1.22v.49l-.86.16v-1.17h-3.58Z"/>
      <path d="M644.73,381.65h4.98v.69h-4.12v1.44h2.51v.68h-2.51v1.64h4.16v.71h-5.02v-5.17Z"/>
      <path d="M655.96,382.35v1.44h3.25c.94,0,1.2.29,1.2,1.22v.58c0,.95-.27,1.22-1.2,1.22h-3.01c-.93,0-1.21-.27-1.21-1.22v-.14l.8-.19v.83h3.84v-1.55h-3.24c-.92,0-1.2-.26-1.2-1.22v-.45c0-.96.28-1.22,1.2-1.22h2.75c.86,0,1.21.24,1.21,1.13v.11l-.74.21v-.75h-3.65Z"/>
    </g>
  </g>
</svg>