<?xml version="1.0" encoding="UTF-8"?>
<svg id="Layer_1" xmlns="http://www.w3.org/2000/svg" version="1.1" viewBox="0 0 841.89 595.28">
  <!-- Generator: Adobe Illustrator 30.2.1, SVG Export Plug-In . SVG Version: 2.1.1 Build 1)  -->
  <defs>
    <style>
      .st0 {
        fill-rule: evenodd;
      }

      .st0, .st1 {
        fill: #e1c58d;
      }

      .st2 {
        fill: #e1b858;
      }

      .st3 {
        fill: #1a2044;
      }

      .st4 {
        fill: #010101;
      }
    </style>
  </defs>
  <g>
    <g>
      <path class="st0" d="M590.92,179.43l-81.48,104.4-.9-5.22-9.94-57.37c-.28-1.61-.86-4.95-1.83-5.75-.08-.06-.18-.12-.31-.17-1.2-.42-4.48.29-9.82,3.96-47.16,32.49-96,63.83-145.19,93.2-.65.39-1.3.78-1.96,1.17-3.41,2.03-7.13,4.25-11.11,6.39-6.53,3.51-13.74,6.82-21.39,8.76-4.75,1.21-9.49,1.8-14.06,1.8-9.12,0-17.61-2.36-24.41-6.95-7.29-4.91-12.63-12.33-15.47-21.45-2.62-8.42-2.81-17.71-.52-26.16,4.07-15.1,15.12-28.54,31.11-37.86,3.9-2.27,8.17-4.25,12.63-5.99.23-2.54.54-5.05.94-7.55,1.38-8.61,3.79-17.01,7.22-25.11,5.51-13.03,13.4-24.74,23.46-34.79,10.05-10.05,21.75-17.94,34.79-23.46,13.5-5.71,27.84-8.61,42.61-8.61s29.11,2.89,42.61,8.61c13.04,5.51,24.74,13.4,34.79,23.46,9.03,9.03,16.32,19.4,21.7,30.87-2.67-1.08-5.54-1.63-8.53-1.63-2.57,0-5.23.41-7.98,1.21-16.37-28.69-47.26-48.08-82.6-48.08-44.73,0-82.34,31.06-92.39,72.75-.58,2.42-1.08,4.88-1.47,7.36,6.71-1.86,13.37-3.34,19.39-4.62v14.52c-6.81,1.45-13.78,3.08-20.56,5.24-4.9,1.56-9.71,3.4-14.28,5.63-1.72.84-3.4,1.73-5.05,2.69-12.49,7.28-21.39,17.89-24.42,29.12-3.31,12.26.95,25.65,10.11,31.84,6.79,4.58,16.57,5.72,26.81,3.12,5.18-1.31,10.23-3.44,15.06-5.89-1.39-1.8-2.73-3.65-4-5.54-3.94-5.83-7.31-12.04-10.07-18.59-4.01-9.47-6.63-19.35-7.83-29.51,4.39-2.34,9.09-4.26,13.93-5.88,1.31,17.34,7.29,33.39,16.69,46.91,1.29,1.86,2.65,3.66,4.06,5.42.27-.16.54-.32.81-.48,49.58-29.54,98.82-61.12,146.34-93.85,4.84-3.33,9.03-5.2,12.65-6.06,6.94-1.65,11.77.42,14.93,3.04,1.41,1.17,2.52,2.52,3.39,3.92,2.27,3.65,2.98,7.74,3.45,10.5l5.26,30.39,61.38-78.65,11.41,8.91Z"/>
      <path class="st1" d="M498.56,260.45c-8.55,43.68-47.12,76.74-93.26,76.74-21.99,0-42.26-7.51-58.38-20.1-1.32.79-2.64,1.58-3.96,2.36-2.9,1.73-6.03,3.59-9.35,5.43,8.69,7.55,18.44,13.63,29.08,18.13,13.5,5.71,27.84,8.61,42.61,8.61s29.11-2.9,42.61-8.61c13.04-5.51,24.74-13.41,34.79-23.46,8.65-8.65,15.7-18.52,21-29.41l-5.15-29.71Z"/>
    </g>
    <g>
      <path class="st2" d="M590.92,179.43l-81.48,104.4-.9-5.22-9.94-57.37c-.28-1.61-.86-4.95-1.83-5.75-.08-.06-.18-.12-.31-.17-1.2-.42-4.48.29-9.82,3.96-47.16,32.49-96,63.83-145.19,93.2-.65.39-1.3.78-1.96,1.17-3.41,2.03-7.13,4.25-11.11,6.39-6.53,3.51-13.74,6.82-21.39,8.76-4.75,1.21-9.49,1.8-14.06,1.8-9.12,0-17.61-2.36-24.41-6.95-7.29-4.91-12.63-12.33-15.47-21.45-2.62-8.42-2.81-17.71-.52-26.16,4.07-15.1,15.12-28.54,31.11-37.86,3.9-2.27,8.17-4.25,12.63-5.99.23-2.54.54-5.05.94-7.55,1.38-8.61,3.79-17.01,7.22-25.11,5.51-13.03,13.4-24.74,23.46-34.79,10.05-10.05,21.75-17.94,34.79-23.46,13.5-5.71,27.84-8.61,42.61-8.61s29.11,2.89,42.61,8.61c13.04,5.51,24.74,13.4,34.79,23.46,9.03,9.03,16.32,19.4,21.7,30.87-2.67-1.08-5.54-1.63-8.53-1.63-2.57,0-5.23.41-7.98,1.21-16.37-28.69-47.26-48.08-82.6-48.08-44.73,0-82.34,31.06-92.39,72.75-.58,2.42-1.08,4.88-1.47,7.36,6.71-1.86,13.37-3.34,19.39-4.62v14.52c-6.81,1.45-13.78,3.08-20.56,5.24-4.9,1.56-9.71,3.4-14.28,5.63-1.72.84-3.4,1.73-5.05,2.69-12.49,7.28-21.39,17.89-24.42,29.12-3.31,12.26.95,25.65,10.11,31.84,6.79,4.58,16.57,5.72,26.81,3.12,5.18-1.31,10.23-3.44,15.06-5.89-1.39-1.8-2.73-3.65-4-5.54-3.94-5.83-7.31-12.04-10.07-18.59-4.01-9.47-6.63-19.35-7.83-29.51,4.39-2.34,9.09-4.26,13.93-5.88,1.31,17.34,7.29,33.39,16.69,46.91,1.29,1.86,2.65,3.66,4.06,5.42.27-.16.54-.32.81-.48,49.58-29.54,98.82-61.12,146.34-93.85,4.84-3.33,9.03-5.2,12.65-6.06,6.94-1.65,11.77.42,14.93,3.04,1.41,1.17,2.52,2.52,3.39,3.92,2.27,3.65,2.98,7.74,3.45,10.5l5.26,30.39,61.38-78.65,11.41,8.91Z"/>
      <path class="st2" d="M498.56,260.45c-8.55,43.68-47.12,76.74-93.26,76.74-21.99,0-42.26-7.51-58.38-20.1-1.32.79-2.64,1.58-3.96,2.36-2.9,1.73-6.03,3.59-9.35,5.43,8.69,7.55,18.44,13.63,29.08,18.13,13.5,5.71,27.84,8.61,42.61,8.61s29.11-2.9,42.61-8.61c13.04-5.51,24.74-13.41,34.79-23.46,8.65-8.65,15.7-18.52,21-29.41l-5.15-29.71Z"/>
    </g>
  </g>
  <g>
    <g>
      <path class="st4" d="M307.64,427.54c0,5.01-1.1,8.38-3.28,10.13-1.88,1.5-5.41,2.25-10.6,2.25h-28.9c-5.19,0-8.73-.75-10.6-2.25-2.19-1.75-3.28-5.13-3.28-10.13v-23.65c0-5,1.09-8.38,3.28-10.13,1.88-1.5,5.41-2.25,10.6-2.25h28.9c5.19,0,8.73.75,10.6,2.25,2.19,1.75,3.28,5.13,3.28,10.13v5.72l-15.01,2.25v-8.82h-26.65v24.96h26.65v-10.13l15.01,2.91v6.76Z"/>
      <path class="st4" d="M381.58,439.93h-16.98l-5.91-9.85h-28.34l-5.63,9.85h-15.58l29.56-48.42h12.95l29.93,48.42ZM352.12,418.53l-7.32-12.86-7.6,12.86h14.92Z"/>
      <path class="st4" d="M447.08,439.93h-10.23l-36.13-28.24c-.13-.06-.31-.19-.56-.38.06.75.09,1.38.09,1.88v26.74h-13.89v-48.42h10.23l34.62,26.84c.44.38,1.13.91,2.06,1.6v-1.41c-.06-.69-.09-1.19-.09-1.5v-25.52h13.89v48.42Z"/>
      <path class="st4" d="M464.44,391.51h39.04c7.04,0,10.23,2.63,10.23,9.38v5.63c0,4.03-1.31,7.41-8.07,8.26,5.44.66,8.35,3.94,8.35,9.48v6.19c0,6.47-4.5,9.48-13.42,9.48h-36.13v-48.42ZM505.44,402.21c0-3.47-1.5-4.22-4.97-4.22h-27.96v13.42h27.96c3.47,0,4.97-.94,4.97-4.32v-4.88ZM505.82,423.51c0-4.5-1.41-5.82-5.35-5.82h-27.96v15.58h27.96c4.03,0,5.35-1.31,5.35-5.72v-4.03Z"/>
      <path class="st4" d="M524.02,391.51h8.07v48.42h-8.07v-48.42Z"/>
      <path class="st4" d="M542.13,436.64l35.84-38.57h-32.75v-6.57h45.7v2.72l-36.5,38.94h36.5v6.76h-48.79v-3.28Z"/>
    </g>
    <g>
      <path class="st3" d="M307.64,427.54c0,5.01-1.1,8.38-3.28,10.13-1.88,1.5-5.41,2.25-10.6,2.25h-28.9c-5.19,0-8.73-.75-10.6-2.25-2.19-1.75-3.28-5.13-3.28-10.13v-23.65c0-5,1.09-8.38,3.28-10.13,1.88-1.5,5.41-2.25,10.6-2.25h28.9c5.19,0,8.73.75,10.6,2.25,2.19,1.75,3.28,5.13,3.28,10.13v5.72l-15.01,2.25v-8.82h-26.65v24.96h26.65v-10.13l15.01,2.91v6.76Z"/>
      <path class="st3" d="M381.58,439.93h-16.98l-5.91-9.85h-28.34l-5.63,9.85h-15.58l29.56-48.42h12.95l29.93,48.42ZM352.12,418.53l-7.32-12.86-7.6,12.86h14.92Z"/>
      <path class="st3" d="M447.08,439.93h-10.23l-36.13-28.24c-.13-.06-.31-.19-.56-.38.06.75.09,1.38.09,1.88v26.74h-13.89v-48.42h10.23l34.62,26.84c.44.38,1.13.91,2.06,1.6v-1.41c-.06-.69-.09-1.19-.09-1.5v-25.52h13.89v48.42Z"/>
      <path class="st3" d="M464.44,391.51h39.04c7.04,0,10.23,2.63,10.23,9.38v5.63c0,4.03-1.31,7.41-8.07,8.26,5.44.66,8.35,3.94,8.35,9.48v6.19c0,6.47-4.5,9.48-13.42,9.48h-36.13v-48.42ZM505.44,402.21c0-3.47-1.5-4.22-4.97-4.22h-27.96v13.42h27.96c3.47,0,4.97-.94,4.97-4.32v-4.88ZM505.82,423.51c0-4.5-1.41-5.82-5.35-5.82h-27.96v15.58h27.96c4.03,0,5.35-1.31,5.35-5.72v-4.03Z"/>
      <path class="st3" d="M524.02,391.51h8.07v48.42h-8.07v-48.42Z"/>
      <path class="st3" d="M542.13,436.64l35.84-38.57h-32.75v-6.57h45.7v2.72l-36.5,38.94h36.5v6.76h-48.79v-3.28Z"/>
    </g>
  </g>
  <g>
    <path d="M266.9,455.72v5.75h5.51v-1.98l1.32.28v.94c0,1.48-.42,1.88-1.85,1.88h-4.44c-1.43,0-1.86-.42-1.86-1.88v-4.18c0-1.46.43-1.88,1.86-1.88h4.44c1.43,0,1.85.4,1.85,1.88v.75l-1.32.25v-1.8h-5.51Z"/>
    <path d="M284.2,454.64h5.49c1.43,0,1.85.42,1.85,1.88v4.18c0,1.46-.42,1.88-1.85,1.88h-5.49c-1.41,0-1.86-.4-1.86-1.88v-4.18c0-1.48.45-1.88,1.86-1.88ZM290.23,461.47v-5.75h-6.57v5.75h6.57Z"/>
    <path d="M300.8,454.64h.83l5.94,5.31c.28.25.58.58.91,1-.12-.74-.12-1.38-.12-1.95v-4.35h1.22v7.94h-.74l-6.11-5.52c-.23-.22-.54-.45-.8-.89.08.58.09,1.15.09,1.74v4.68h-1.22v-7.94Z"/>
    <path d="M320.07,455.72v2.21h5c1.45,0,1.85.45,1.85,1.88v.89c0,1.46-.42,1.88-1.85,1.88h-4.63c-1.43,0-1.86-.42-1.86-1.88v-.22l1.23-.29v1.28h5.91v-2.38h-4.98c-1.41,0-1.85-.4-1.85-1.88v-.69c0-1.48.43-1.88,1.85-1.88h4.23c1.32,0,1.86.37,1.86,1.74v.17l-1.14.32v-1.15h-5.61Z"/>
    <path d="M337.49,461.47h5.78v-6.83h1.31v6.06c0,1.46-.42,1.88-1.85,1.88h-4.71c-1.41,0-1.86-.4-1.86-1.88v-6.06h1.32v6.83Z"/>
    <path d="M353.94,454.64h1.32v6.83h6.01v1.11h-7.34v-7.94Z"/>
    <path d="M370.59,462.58h-1.32v-6.86h-3.63v-1.08h8.6v1.08h-3.65v6.86Z"/>
    <path d="M383.34,454.64h1.42l4.41,7.94h-1.46l-1.02-1.95h-5.37l-1.02,1.95h-1.31l4.34-7.94ZM386.15,459.61l-2.14-4.06-2.14,4.06h4.28Z"/>
    <path d="M396.97,454.64h.83l5.94,5.31c.28.25.58.58.91,1-.12-.74-.12-1.38-.12-1.95v-4.35h1.22v7.94h-.74l-6.11-5.52c-.23-.22-.54-.45-.8-.89.08.58.09,1.15.09,1.74v4.68h-1.22v-7.94Z"/>
    <path d="M416.3,455.72v5.75h5.51v-1.98l1.32.28v.94c0,1.48-.42,1.88-1.85,1.88h-4.44c-1.43,0-1.86-.42-1.86-1.88v-4.18c0-1.46.43-1.88,1.86-1.88h4.44c1.43,0,1.85.4,1.85,1.88v.75l-1.32.25v-1.8h-5.51Z"/>
    <path d="M434.59,459.12l-4.03-4.48h1.65l3.11,3.54,2.97-3.54h1.61l-3.98,4.44v3.49h-1.32v-3.46Z"/>
    <path d="M459.81,455.72v2.21h5c1.45,0,1.85.45,1.85,1.88v.89c0,1.46-.42,1.88-1.85,1.88h-4.63c-1.43,0-1.86-.42-1.86-1.88v-.22l1.23-.29v1.28h5.91v-2.38h-4.98c-1.42,0-1.85-.4-1.85-1.88v-.69c0-1.48.43-1.88,1.85-1.88h4.23c1.32,0,1.86.37,1.86,1.74v.17l-1.14.32v-1.15h-5.61Z"/>
    <path d="M475.9,454.64h7.64v1.06h-6.32v2.21h3.86v1.05h-3.86v2.52h6.38v1.09h-7.71v-7.94Z"/>
    <path d="M491.99,454.64h6.4c1.15,0,1.68.43,1.68,1.54v1.77c0,1.11-.52,1.54-1.68,1.54h-1.17l3.63,3.09h-1.97l-3.23-3.09h-2.34v3.09h-1.32v-7.94ZM493.32,455.67v2.78h4.55c.58,0,.86-.14.86-.82v-1.15c0-.66-.28-.82-.86-.82h-4.55Z"/>
    <path d="M507.39,454.64h1.43l3.51,6.61,3.35-6.61h1.31l-4.15,7.94h-1.11l-4.34-7.94Z"/>
    <path d="M524.79,454.64h1.32v7.94h-1.32v-7.94Z"/>
    <path d="M536.68,455.72v5.75h5.51v-1.98l1.32.28v.94c0,1.48-.42,1.88-1.85,1.88h-4.44c-1.43,0-1.86-.42-1.86-1.88v-4.18c0-1.46.43-1.88,1.86-1.88h4.44c1.43,0,1.85.4,1.85,1.88v.75l-1.32.25v-1.8h-5.51Z"/>
    <path d="M552.23,454.64h7.64v1.06h-6.32v2.21h3.86v1.05h-3.86v2.52h6.38v1.09h-7.71v-7.94Z"/>
    <path d="M569.47,455.72v2.21h5c1.45,0,1.85.45,1.85,1.88v.89c0,1.46-.42,1.88-1.85,1.88h-4.63c-1.43,0-1.86-.42-1.86-1.88v-.22l1.23-.29v1.28h5.91v-2.38h-4.98c-1.41,0-1.85-.4-1.85-1.88v-.69c0-1.48.43-1.88,1.85-1.88h4.23c1.32,0,1.86.37,1.86,1.74v.17l-1.14.32v-1.15h-5.61Z"/>
  </g>
</svg>