<svg width="531" height="201" viewBox="0 0 531 201" fill="none" xmlns="http://www.w3.org/2000/svg">
<path fill-rule="evenodd" clip-rule="evenodd" d="M278.62 46.49L212.31 131.45L211.58 127.21L203.49 80.53C203.26 79.22 202.79 76.5 202 75.85C201.94 75.8 201.85 75.75 201.75 75.71C200.78 75.37 198.1 75.94 193.76 78.94C155.38 105.38 115.64 130.89 75.61 154.78C75.08 155.1 74.55 155.41 74.02 155.73C71.25 157.38 68.22 159.19 64.98 160.93C59.67 163.79 53.8 166.48 47.57 168.06C43.7 169.04 39.85 169.52 36.13 169.52C28.71 169.52 21.8 167.6 16.27 163.87C10.34 159.87 5.98999 153.84 3.67999 146.42C1.54999 139.57 1.4 132.01 3.25 125.13C6.56 112.84 15.55 101.9 28.56 94.32C31.73 92.47 35.21 90.86 38.84 89.44C39.02 87.38 39.28 85.33 39.61 83.29C40.74 76.28 42.7 69.45 45.49 62.86C49.98 52.25 56.4 42.73 64.58 34.55C72.76 26.37 82.28 19.95 92.89 15.46C103.88 10.81 115.54 8.46001 127.57 8.46001C139.6 8.46001 151.26 10.82 162.25 15.46C172.86 19.95 182.39 26.37 190.56 34.55C197.91 41.9 203.84 50.34 208.22 59.67C206.05 58.79 203.71 58.34 201.28 58.34C199.19 58.34 197.02 58.67 194.79 59.33C181.47 35.98 156.33 20.21 127.57 20.21C91.17 20.21 60.57 45.49 52.39 79.41C51.91 81.38 51.51 83.38 51.2 85.4C56.66 83.89 62.08 82.68 66.98 81.64V93.45C61.44 94.63 55.77 95.96 50.25 97.72C46.26 98.99 42.35 100.48 38.63 102.3C37.23 102.98 35.86 103.71 34.52 104.49C24.36 110.41 17.11 119.05 14.65 128.19C11.96 138.17 15.42 149.07 22.88 154.1C28.41 157.83 36.36 158.75 44.7 156.64C48.91 155.57 53.02 153.84 56.96 151.85C55.83 150.38 54.74 148.88 53.71 147.35C50.51 142.6 47.76 137.55 45.51 132.22C42.25 124.51 40.12 116.47 39.14 108.21C42.71 106.31 46.53 104.74 50.48 103.43C51.54 117.54 56.41 130.61 64.06 141.6C65.11 143.11 66.21 144.58 67.37 146.01C67.59 145.88 67.81 145.75 68.03 145.62C108.38 121.58 148.45 95.88 187.12 69.25C191.05 66.54 194.47 65.02 197.42 64.32C203.07 62.98 207 64.66 209.57 66.79C210.72 67.75 211.62 68.84 212.33 69.98C214.17 72.95 214.75 76.28 215.14 78.53L219.42 103.26L269.37 39.26L278.66 46.51L278.62 46.49Z" fill="#E1C58D"/>
<path d="M203.45 112.42C196.49 147.96 165.11 174.87 127.56 174.87C109.66 174.87 93.17 168.76 80.05 158.51C78.98 159.15 77.9 159.79 76.83 160.43C74.47 161.84 71.93 163.35 69.22 164.85C76.29 170.99 84.23 175.94 92.88 179.61C103.87 184.26 115.53 186.61 127.56 186.61C139.59 186.61 151.25 184.25 162.24 179.61C172.85 175.12 182.38 168.7 190.55 160.52C197.59 153.48 203.32 145.45 207.64 136.59L203.45 112.42Z" fill="#E1C58D"/>
<path fill-rule="evenodd" clip-rule="evenodd" d="M278.62 46.49L212.31 131.45L211.58 127.21L203.49 80.53C203.26 79.22 202.79 76.5 202 75.85C201.94 75.8 201.85 75.75 201.75 75.71C200.78 75.37 198.1 75.94 193.76 78.94C155.38 105.38 115.64 130.89 75.61 154.78C75.08 155.1 74.55 155.41 74.02 155.73C71.25 157.38 68.22 159.19 64.98 160.93C59.67 163.79 53.8 166.48 47.57 168.06C43.7 169.04 39.85 169.52 36.13 169.52C28.71 169.52 21.8 167.6 16.27 163.87C10.34 159.87 5.98999 153.84 3.67999 146.42C1.54999 139.57 1.4 132.01 3.25 125.13C6.56 112.84 15.55 101.9 28.56 94.32C31.73 92.47 35.21 90.86 38.84 89.44C39.02 87.38 39.28 85.33 39.61 83.29C40.74 76.28 42.7 69.45 45.49 62.86C49.98 52.25 56.4 42.73 64.58 34.55C72.76 26.37 82.28 19.95 92.89 15.46C103.88 10.81 115.54 8.46001 127.57 8.46001C139.6 8.46001 151.26 10.82 162.25 15.46C172.86 19.95 182.39 26.37 190.56 34.55C197.91 41.9 203.84 50.34 208.22 59.67C206.05 58.79 203.71 58.34 201.28 58.34C199.19 58.34 197.02 58.67 194.79 59.33C181.47 35.98 156.33 20.21 127.57 20.21C91.17 20.21 60.57 45.49 52.39 79.41C51.91 81.38 51.51 83.38 51.2 85.4C56.66 83.89 62.08 82.68 66.98 81.64V93.45C61.44 94.63 55.77 95.96 50.25 97.72C46.26 98.99 42.35 100.48 38.63 102.3C37.23 102.98 35.86 103.71 34.52 104.49C24.36 110.41 17.11 119.05 14.65 128.19C11.96 138.17 15.42 149.07 22.88 154.1C28.41 157.83 36.36 158.75 44.7 156.64C48.91 155.57 53.02 153.84 56.96 151.85C55.83 150.38 54.74 148.88 53.71 147.35C50.51 142.6 47.76 137.55 45.51 132.22C42.25 124.51 40.12 116.47 39.14 108.21C42.71 106.31 46.53 104.74 50.48 103.43C51.54 117.54 56.41 130.61 64.06 141.6C65.11 143.11 66.21 144.58 67.37 146.01C67.59 145.88 67.81 145.75 68.03 145.62C108.38 121.58 148.45 95.88 187.12 69.25C191.05 66.54 194.47 65.02 197.42 64.32C203.07 62.98 207 64.66 209.57 66.79C210.72 67.75 211.62 68.84 212.33 69.98C214.17 72.95 214.75 76.28 215.14 78.53L219.42 103.26L269.37 39.26L278.66 46.51L278.62 46.49Z" fill="#E1B858"/>
<path fill-rule="evenodd" clip-rule="evenodd" d="M203.45 112.42C196.49 147.96 165.11 174.87 127.56 174.87C109.66 174.87 93.17 168.76 80.05 158.51C78.98 159.15 77.9 159.79 76.83 160.43C74.47 161.84 71.93 163.35 69.22 164.85C76.29 170.99 84.23 175.94 92.88 179.61C103.87 184.26 115.53 186.61 127.56 186.61C139.59 186.61 151.25 184.25 162.24 179.61C172.85 175.12 182.38 168.7 190.55 160.52C197.59 153.48 203.32 145.45 207.64 136.59L203.45 112.42Z" fill="#E1B858"/>
<path d="M258.161 179.234V185.732H262.992V183.49L264.153 183.803V184.863C264.153 186.531 263.789 186.983 262.533 186.983H258.633C257.378 186.983 257 186.513 257 184.863V180.137C257 178.486 257.378 178.017 258.633 178.017H262.533C263.789 178.017 264.153 178.469 264.153 180.137V180.988L262.992 181.266V179.234H258.161Z" fill="#CFCFCE"/>
<path d="M273.371 178.017H278.189C279.444 178.017 279.808 178.486 279.808 180.137V184.863C279.808 186.513 279.444 186.983 278.189 186.983H273.371C272.129 186.983 271.738 186.531 271.738 184.863V180.137C271.738 178.469 272.129 178.017 273.371 178.017ZM278.661 185.732V179.234H272.885V185.732H278.661Z" fill="#CFCFCE"/>
<path d="M287.947 178.017H288.675L293.885 184.012C294.128 184.29 294.398 184.672 294.681 185.141C294.573 184.307 294.573 183.577 294.573 182.934V178.017H295.639V187H294.992L289.634 180.763C289.431 180.519 289.161 180.259 288.932 179.755C288.999 180.415 289.013 181.058 289.013 181.718V187H287.947V178.017Z" fill="#CFCFCE"/>
<path d="M304.884 179.234V181.736H309.271C310.539 181.736 310.89 182.239 310.89 183.855V184.863C310.89 186.513 310.526 186.983 309.271 186.983H305.208C303.953 186.983 303.575 186.513 303.575 184.863V184.62L304.655 184.29V185.732H309.837V183.039H305.465C304.223 183.039 303.845 182.587 303.845 180.919V180.137C303.845 178.469 304.223 178.017 305.465 178.017H309.176C310.337 178.017 310.809 178.434 310.809 179.981V180.172L309.81 180.537V179.234H304.884Z" fill="#CFCFCE"/>
<path d="M320.175 185.732H325.25V178H326.397V184.846C326.397 186.496 326.033 186.965 324.778 186.965H320.648C319.406 186.965 319.015 186.513 319.015 184.846V178H320.175V185.732Z" fill="#CFCFCE"/>
<path d="M334.63 178.017H335.791V185.749H341.067V187H334.616V178.017H334.63Z" fill="#CFCFCE"/>
<path d="M349.26 186.983H348.099V179.216H344.914V178H352.472V179.216H349.273V186.983H349.26Z" fill="#CFCFCE"/>
<path d="M360.461 178.017H361.703L365.577 187H364.294L363.404 184.793H358.693L357.803 187H356.655L360.461 178.017ZM362.931 183.629L361.055 179.042L359.179 183.629H362.931Z" fill="#CFCFCE"/>
<path d="M372.433 178.017H373.161L378.371 184.012C378.614 184.29 378.884 184.672 379.167 185.141C379.059 184.307 379.059 183.577 379.059 182.934V178.017H380.125V187H379.478L374.12 180.763C373.917 180.519 373.647 180.259 373.418 179.755C373.485 180.415 373.499 181.058 373.499 181.718V187H372.433V178.017Z" fill="#CFCFCE"/>
<path d="M389.424 179.234V185.732H394.256V183.49L395.416 183.803V184.863C395.416 186.531 395.052 186.983 393.797 186.983H389.897C388.641 186.983 388.264 186.513 388.264 184.863V180.137C388.264 178.486 388.641 178.017 389.897 178.017H393.797C395.052 178.017 395.416 178.469 395.416 180.137V180.988L394.256 181.266V179.234H389.424Z" fill="#CFCFCE"/>
<path d="M405.485 183.073L401.949 178.017H403.393L406.119 182.014L408.724 178.017H410.141L406.645 183.039V186.983H405.485V183.073Z" fill="#CFCFCE"/>
<path d="M427.659 179.234V181.736H432.045C433.314 181.736 433.665 182.239 433.665 183.855V184.863C433.665 186.513 433.3 186.983 432.045 186.983H427.983C426.728 186.983 426.35 186.513 426.35 184.863V184.62L427.429 184.29V185.732H432.612V183.039H428.239C426.997 183.039 426.62 182.587 426.62 180.919V180.137C426.62 178.469 426.997 178.017 428.239 178.017H431.951C433.111 178.017 433.584 178.434 433.584 179.981V180.172L432.585 180.537V179.234H427.659Z" fill="#CFCFCE"/>
<path d="M441.789 178.017H448.51V179.216H442.95V181.718H446.337V182.9H442.95V185.749H448.564V186.983H441.789V178V178.017Z" fill="#CFCFCE"/>
<path d="M455.92 178.017H461.548C462.56 178.017 463.019 178.504 463.019 179.755V181.753C463.019 183.004 462.56 183.49 461.548 183.49H460.522L463.707 186.983H461.979L459.145 183.49H457.094V186.983H455.933V178L455.92 178.017ZM457.08 179.181V182.326H461.075C461.588 182.326 461.831 182.17 461.831 181.405V180.102C461.831 179.355 461.588 179.181 461.075 179.181H457.08Z" fill="#CFCFCE"/>
<path d="M469.456 178.017H470.711L473.789 185.506L476.731 178.017H477.878L474.234 187H473.262L469.456 178.017Z" fill="#CFCFCE"/>
<path d="M484.734 178.017H485.895V187H484.734V178.017Z" fill="#CFCFCE"/>
<path d="M495.18 179.234V185.732H500.012V183.49L501.172 183.803V184.863C501.172 186.531 500.808 186.983 499.553 186.983H495.652C494.397 186.983 494.019 186.513 494.019 184.863V180.137C494.019 178.486 494.397 178.017 495.652 178.017H499.553C500.808 178.017 501.172 178.469 501.172 180.137V180.988L500.012 181.266V179.234H495.18Z" fill="#CFCFCE"/>
<path d="M508.838 178.017H515.559V179.216H509.999V181.718H513.386V182.9H509.999V185.749H515.613V186.983H508.838V178V178.017Z" fill="#CFCFCE"/>
<path d="M523.994 179.234V181.736H528.381C529.649 181.736 530 182.239 530 183.855V184.863C530 186.513 529.636 186.983 528.381 186.983H524.318C523.063 186.983 522.685 186.513 522.685 184.863V184.62L523.765 184.29V185.732H528.947V183.039H524.575C523.333 183.039 522.955 182.587 522.955 180.919V180.137C522.955 178.469 523.333 178.017 524.575 178.017H528.286C529.447 178.017 529.919 178.434 529.919 179.981V180.172L528.92 180.537V179.234H523.994Z" fill="#CFCFCE"/>
<path d="M258.161 179.234V185.732H262.992V183.49L264.153 183.803V184.863C264.153 186.531 263.789 186.983 262.533 186.983H258.633C257.378 186.983 257 186.513 257 184.863V180.137C257 178.486 257.378 178.017 258.633 178.017H262.533C263.789 178.017 264.153 178.469 264.153 180.137V180.988L262.992 181.266V179.234H258.161Z" fill="black"/>
<path d="M273.371 178.017H278.189C279.444 178.017 279.808 178.486 279.808 180.137V184.863C279.808 186.513 279.444 186.983 278.189 186.983H273.371C272.129 186.983 271.738 186.531 271.738 184.863V180.137C271.738 178.469 272.129 178.017 273.371 178.017ZM278.661 185.732V179.234H272.885V185.732H278.661Z" fill="black"/>
<path d="M287.947 178.017H288.675L293.885 184.012C294.128 184.29 294.398 184.672 294.681 185.141C294.573 184.307 294.573 183.577 294.573 182.934V178.017H295.639V187H294.992L289.634 180.763C289.431 180.519 289.161 180.259 288.932 179.755C288.999 180.415 289.013 181.058 289.013 181.718V187H287.947V178.017Z" fill="black"/>
<path d="M304.884 179.234V181.736H309.271C310.539 181.736 310.89 182.239 310.89 183.855V184.863C310.89 186.513 310.526 186.983 309.271 186.983H305.208C303.953 186.983 303.575 186.513 303.575 184.863V184.62L304.655 184.29V185.732H309.837V183.039H305.465C304.223 183.039 303.845 182.587 303.845 180.919V180.137C303.845 178.469 304.223 178.017 305.465 178.017H309.176C310.337 178.017 310.809 178.434 310.809 179.981V180.172L309.81 180.537V179.234H304.884Z" fill="black"/>
<path d="M320.175 185.732H325.25V178H326.397V184.846C326.397 186.496 326.033 186.965 324.778 186.965H320.648C319.406 186.965 319.015 186.513 319.015 184.846V178H320.175V185.732Z" fill="black"/>
<path d="M334.63 178.017H335.791V185.749H341.067V187H334.616V178.017H334.63Z" fill="black"/>
<path d="M349.26 186.983H348.099V179.216H344.914V178H352.472V179.216H349.273V186.983H349.26Z" fill="black"/>
<path d="M360.461 178.017H361.703L365.577 187H364.294L363.404 184.793H358.693L357.803 187H356.655L360.461 178.017ZM362.931 183.629L361.055 179.042L359.179 183.629H362.931Z" fill="black"/>
<path d="M372.433 178.017H373.161L378.371 184.012C378.614 184.29 378.884 184.672 379.167 185.141C379.059 184.307 379.059 183.577 379.059 182.934V178.017H380.125V187H379.478L374.12 180.763C373.917 180.519 373.647 180.259 373.418 179.755C373.485 180.415 373.499 181.058 373.499 181.718V187H372.433V178.017Z" fill="black"/>
<path d="M389.424 179.234V185.732H394.256V183.49L395.416 183.803V184.863C395.416 186.531 395.052 186.983 393.797 186.983H389.897C388.641 186.983 388.264 186.513 388.264 184.863V180.137C388.264 178.486 388.641 178.017 389.897 178.017H393.797C395.052 178.017 395.416 178.469 395.416 180.137V180.988L394.256 181.266V179.234H389.424Z" fill="black"/>
<path d="M405.485 183.073L401.949 178.017H403.393L406.119 182.014L408.724 178.017H410.141L406.645 183.039V186.983H405.485V183.073Z" fill="black"/>
<path d="M427.659 179.234V181.736H432.045C433.314 181.736 433.665 182.239 433.665 183.855V184.863C433.665 186.513 433.3 186.983 432.045 186.983H427.983C426.728 186.983 426.35 186.513 426.35 184.863V184.62L427.429 184.29V185.732H432.612V183.039H428.239C426.997 183.039 426.62 182.587 426.62 180.919V180.137C426.62 178.469 426.997 178.017 428.239 178.017H431.951C433.111 178.017 433.584 178.434 433.584 179.981V180.172L432.585 180.537V179.234H427.659Z" fill="black"/>
<path d="M441.789 178.017H448.51V179.216H442.95V181.718H446.337V182.9H442.95V185.749H448.564V186.983H441.789V178V178.017Z" fill="black"/>
<path d="M455.92 178.017H461.548C462.56 178.017 463.019 178.504 463.019 179.755V181.753C463.019 183.004 462.56 183.49 461.548 183.49H460.522L463.707 186.983H461.979L459.145 183.49H457.094V186.983H455.933V178L455.92 178.017ZM457.08 179.181V182.326H461.075C461.588 182.326 461.831 182.17 461.831 181.405V180.102C461.831 179.355 461.588 179.181 461.075 179.181H457.08Z" fill="black"/>
<path d="M469.456 178.017H470.711L473.789 185.506L476.731 178.017H477.878L474.234 187H473.262L469.456 178.017Z" fill="black"/>
<path d="M484.734 178.017H485.895V187H484.734V178.017Z" fill="black"/>
<path d="M495.18 179.234V185.732H500.012V183.49L501.172 183.803V184.863C501.172 186.531 500.808 186.983 499.553 186.983H495.652C494.397 186.983 494.019 186.513 494.019 184.863V180.137C494.019 178.486 494.397 178.017 495.652 178.017H499.553C500.808 178.017 501.172 178.469 501.172 180.137V180.988L500.012 181.266V179.234H495.18Z" fill="black"/>
<path d="M508.838 178.017H515.559V179.216H509.999V181.718H513.386V182.9H509.999V185.749H515.613V186.983H508.838V178V178.017Z" fill="black"/>
<path d="M523.994 179.234V181.736H528.381C529.649 181.736 530 182.239 530 183.855V184.863C530 186.513 529.636 186.983 528.381 186.983H524.318C523.063 186.983 522.685 186.513 522.685 184.863V184.62L523.765 184.29V185.732H528.947V183.039H524.575C523.333 183.039 522.955 182.587 522.955 180.919V180.137C522.955 178.469 523.333 178.017 524.575 178.017H528.286C529.447 178.017 529.919 178.434 529.919 179.981V180.172L528.92 180.537V179.234H523.994Z" fill="black"/>
<path d="M301.709 159.081C301.709 163.12 300.829 165.846 299.057 167.259C297.546 168.473 294.696 169.08 290.508 169.08H267.201C263.013 169.08 260.163 168.473 258.652 167.259C256.88 165.846 256 163.12 256 159.081V140.012C256 135.972 256.88 133.246 258.652 131.834C260.163 130.62 263.013 130.012 267.201 130.012H290.508C294.696 130.012 297.546 130.62 299.057 131.834C300.829 133.246 301.709 135.972 301.709 140.012V144.633L289.603 146.455V139.342H268.106V159.477H289.603V151.299L301.709 153.641V159.093V159.081Z" fill="#010101"/>
<path d="M361.357 169.068H347.653L342.883 161.125H320.022L315.475 169.068H302.911L326.75 130.012H337.196L361.345 169.068H361.357ZM337.592 151.807L331.694 141.437L325.561 151.807H337.592Z" fill="#010101"/>
<path d="M414.179 169.068H405.926L376.784 146.281C376.685 146.232 376.536 146.133 376.325 145.984C376.375 146.591 376.4 147.099 376.4 147.496V169.068H365.199V130.012H373.451L401.379 151.659C401.726 151.956 402.284 152.39 403.039 152.947V151.807C402.99 151.25 402.965 150.853 402.965 150.593V130.012H414.166V169.068H414.179Z" fill="#010101"/>
<path d="M428.18 130.012H459.665C465.34 130.012 467.917 132.131 467.917 137.583V142.13C467.917 145.389 466.851 148.115 461.412 148.797C465.798 149.329 468.152 151.981 468.152 156.442V161.435C468.152 166.651 464.522 169.08 457.323 169.08H428.18V130.025V130.012ZM461.263 138.636C461.263 135.836 460.049 135.229 457.248 135.229H434.698V146.058H457.248C460.049 146.058 461.263 145.302 461.263 142.576V138.636ZM461.56 155.822C461.56 152.192 460.42 151.126 457.248 151.126H434.698V163.69H457.248C460.507 163.69 461.56 162.624 461.56 159.068V155.81V155.822Z" fill="#010101"/>
<path d="M476.243 130.012H482.748V169.068H476.243V130.012Z" fill="#010101"/>
<path d="M490.852 166.416L519.759 135.303H493.342V130H530.204V132.193L500.764 163.603H530.204V169.055H490.852V166.404V166.416Z" fill="#010101"/>
<path d="M301.709 159.081C301.709 163.12 300.829 165.846 299.057 167.259C297.546 168.473 294.696 169.08 290.508 169.08H267.201C263.013 169.08 260.163 168.473 258.652 167.259C256.88 165.846 256 163.12 256 159.081V140.012C256 135.972 256.88 133.246 258.652 131.834C260.163 130.62 263.013 130.012 267.201 130.012H290.508C294.696 130.012 297.546 130.62 299.057 131.834C300.829 133.246 301.709 135.972 301.709 140.012V144.633L289.603 146.455V139.342H268.106V159.477H289.603V151.299L301.709 153.641V159.093V159.081Z" fill="#1A2044"/>
<path d="M361.357 169.068H347.653L342.883 161.125H320.022L315.475 169.068H302.911L326.75 130.012H337.196L361.345 169.068H361.357ZM337.592 151.807L331.694 141.437L325.561 151.807H337.592Z" fill="#1A2044"/>
<path d="M414.179 169.068H405.926L376.784 146.281C376.685 146.232 376.536 146.133 376.325 145.984C376.375 146.591 376.4 147.099 376.4 147.496V169.068H365.199V130.012H373.451L401.379 151.659C401.726 151.956 402.284 152.39 403.039 152.947V151.807C402.99 151.25 402.965 150.853 402.965 150.593V130.012H414.166V169.068H414.179Z" fill="#1A2044"/>
<path d="M428.18 130.012H459.665C465.34 130.012 467.917 132.131 467.917 137.583V142.13C467.917 145.389 466.851 148.115 461.412 148.797C465.798 149.329 468.152 151.981 468.152 156.442V161.435C468.152 166.651 464.522 169.08 457.323 169.08H428.18V130.025V130.012ZM461.263 138.636C461.263 135.836 460.049 135.229 457.248 135.229H434.698V146.058H457.248C460.049 146.058 461.263 145.302 461.263 142.576V138.636ZM461.56 155.822C461.56 152.192 460.42 151.126 457.248 151.126H434.698V163.69H457.248C460.507 163.69 461.56 162.624 461.56 159.068V155.81V155.822Z" fill="#1A2044"/>
<path d="M476.243 130.012H482.748V169.068H476.243V130.012Z" fill="#1A2044"/>
<path d="M490.852 166.416L519.759 135.303H493.342V130H530.204V132.193L500.764 163.603H530.204V169.055H490.852V166.404V166.416Z" fill="#1A2044"/>
</svg>
