<svg id="SvgjsSvg1001" width="288" height="288" xmlns="http://www.w3.org/2000/svg" version="1.1" xmlns:xlink="http://www.w3.org/1999/xlink" xmlns:svgjs="http://svgjs.com/svgjs"><defs id="SvgjsDefs1002"></defs><g id="SvgjsG1008" transform="matrix(1,0,0,1,0,0)"><svg xmlns="http://www.w3.org/2000/svg" viewBox="0 0 3508 2481" width="288" height="288"><path fill="#e1b857" d="M0 0 C102.97223836 -2.64704501 204.75813393 32.39129646 310.65380859 115.06201172 C311.55744141 115.85220703 312.46107422 116.64240234 313.39208984 117.45654297 C320.66162553 123.96861618 327.5568539 130.86097049 334.46630859 137.74951172 C334.96653534 138.24705963 335.46676208 138.74460754 335.98214722 139.25723267 C341.75975505 145.01137596 347.37636846 150.84220278 352.65380859 157.06201172 C353.49943359 158.02623047 354.34505859 158.99044922 355.21630859 159.98388672 C378.63630947 187.15709287 397.91153246 217.41169484 414.65380859 249.06201172 C415.20633301 250.09116699 415.20633301 250.09116699 415.77001953 251.14111328 C419.68289459 258.43623937 419.68289459 258.43623937 420.65380859 261.06201172 C420.32380859 262.05201172 419.99380859 263.04201172 419.65380859 264.06201172 C418.50783203 263.71267578 417.36185547 263.36333984 416.18115234 263.00341797 C414.65128369 262.5435188 413.12133128 262.08389818 411.59130859 261.62451172 C410.46305664 261.27936523 410.46305664 261.27936523 409.31201172 260.92724609 C392.33350814 255.85574502 374.60294279 257.23372482 357.54833984 261.18701172 C353.65380859 262.06201172 353.65380859 262.06201172 350.65380859 262.06201172 C349.40209961 260.49584961 349.40209961 260.49584961 348.15771484 258.28466797 C347.68793213 257.46973877 347.21814941 256.65480957 346.73413086 255.81518555 C346.23324951 254.92726318 345.73236816 254.03934082 345.21630859 253.12451172 C339.53267073 243.36244572 333.37297448 234.13680818 326.65380859 225.06201172 C326.1264209 224.34916016 325.5990332 223.63630859 325.05566406 222.90185547 C308.47300989 200.61221632 289.86384229 179.08504553 268.65380859 161.06201172 C267.63852495 160.17248207 266.62429252 159.28175186 265.61083984 158.39013672 C239.76747597 135.76177254 210.54676164 116.83859578 179.58544922 101.99316406 C177.62619367 101.04869987 175.67904342 100.08201455 173.73193359 99.11279297 C141.23010049 83.13731568 105.91942642 73.38930784 70.34130859 67.31201172 C69.18735596 67.11325439 68.03340332 66.91449707 66.84448242 66.7097168 C47.31023529 63.5229887 27.92596082 62.68647928 8.15380859 62.74951172 C6.96515198 62.75133453 5.77649536 62.75315735 4.55181885 62.7550354 C-13.27352224 62.80101792 -30.70848249 63.29829916 -48.34619141 66.06201172 C-50.02165039 66.31144531 -50.02165039 66.31144531 -51.73095703 66.56591797 C-126.09490713 77.85218358 -195.83220404 110.52052928 -252.34619141 160.06201172 C-253.68037109 161.22796875 -253.68037109 161.22796875 -255.04150391 162.41748047 C-261.58093039 168.27688113 -267.83681414 174.42654784 -274.06887817 180.60946655 C-275.49059671 182.01927795 -276.91625929 183.42510851 -278.34204102 184.83081055 C-284.44905315 190.9301896 -289.96870504 197.31671835 -295.34619141 204.06201172 C-296.20968794 205.08947076 -297.07808154 206.11287936 -297.95556641 207.12841797 C-342.90419832 259.54114752 -370.27679694 325.57297142 -382.34619141 393.06201172 C-381.72074936 392.91024979 -381.09530731 392.75848785 -380.45091248 392.60212708 C-373.81417184 390.99231332 -367.17650158 389.38637372 -360.53833008 387.7824707 C-358.07618598 387.18706698 -355.61426375 386.59074487 -353.15258789 385.9934082 C-340.54398832 382.93451718 -327.93038396 379.91367555 -315.25634766 377.13623047 C-314.29425888 376.92400345 -313.3321701 376.71177643 -312.34092712 376.49311829 C-311.45973709 376.30275497 -310.57854706 376.11239166 -309.6706543 375.91625977 C-308.90378799 375.75014694 -308.13692169 375.58403412 -307.34681702 375.41288757 C-305.34619141 375.06201172 -305.34619141 375.06201172 -302.34619141 375.06201172 C-302.34619141 395.52201172 -302.34619141 415.98201172 -302.34619141 437.06201172 C-308.82244141 438.54701172 -315.29869141 440.03201172 -321.97119141 441.56201172 C-385.69247975 456.3586076 -450.74538937 474.99190639 -502.34619141 517.06201172 C-502.97106445 517.57119141 -503.5959375 518.08037109 -504.23974609 518.60498047 C-516.48204118 528.66784954 -527.66784417 539.47850022 -537.34619141 552.06201172 C-537.77786621 552.61727539 -538.20954102 553.17253906 -538.65429688 553.74462891 C-545.83731132 563.03129508 -551.96329506 572.62891373 -557.34619141 583.06201172 C-557.82548096 583.98965332 -557.82548096 583.98965332 -558.31445312 584.93603516 C-567.74865315 603.48881117 -573.38095985 623.21904282 -574.34619141 644.06201172 C-574.38744141 644.81869141 -574.42869141 645.57537109 -574.47119141 646.35498047 C-575.06658736 667.97529614 -569.75246348 688.74216302 -560.34619141 708.06201172 C-559.65589844 709.51994141 -559.65589844 709.51994141 -558.95166016 711.00732422 C-547.9633394 732.73063268 -528.32685816 749.25618663 -505.34619141 757.06201172 C-459.84096846 771.54963521 -414.2197705 761.28989132 -371.65869141 742.24951172 C-371.00856079 741.95897919 -370.35843018 741.66844666 -369.68859863 741.36911011 C-362.5127763 738.48716117 -362.5127763 738.48716117 -356.34619141 734.06201172 C-356.87237061 733.37147705 -356.87237061 733.37147705 -357.40917969 732.66699219 C-405.21107361 669.62795424 -439.69271408 590.48648772 -446.34619141 511.06201172 C-431.36861907 503.38957684 -416.27407702 496.37934348 -400.47119141 490.56201172 C-399.52550293 490.21138672 -398.57981445 489.86076172 -397.60546875 489.49951172 C-396.27443115 489.01998047 -396.27443115 489.01998047 -394.91650391 488.53076172 C-393.73725342 488.1044043 -393.73725342 488.1044043 -392.53417969 487.66943359 C-390.34619141 487.06201172 -390.34619141 487.06201172 -386.34619141 487.06201172 C-386.24914917 488.06893066 -386.24914917 488.06893066 -386.15014648 489.09619141 C-381.44048681 536.91237561 -369.84487004 582.5004452 -349.34619141 626.06201172 C-348.93401367 626.94147461 -348.52183594 627.8209375 -348.09716797 628.72705078 C-335.47717601 655.40089357 -319.24435299 679.68153037 -301.34619141 703.06201172 C-297.46050965 701.6199673 -294.00171398 699.80541941 -290.42822266 697.71044922 C-289.86274719 697.37973923 -289.29727173 697.04902924 -288.71466064 696.70829773 C-286.86032817 695.62180385 -285.00935761 694.52973722 -283.15869141 693.43701172 C-282.51648651 693.05930634 -281.87428162 692.68160095 -281.21261597 692.29244995 C-271.14172634 686.36868085 -261.16253986 680.30889928 -251.23022461 674.15527344 C-242.97989065 669.04825111 -234.67477218 664.03978953 -226.34619141 659.06201172 C-214.68258837 652.0883542 -203.0885888 645.01073258 -191.52587891 637.87060547 C-185.54462305 634.17850696 -179.54188465 630.52256081 -173.53369141 626.87451172 C-157.82519262 617.3289699 -142.22199077 607.61772431 -126.64379883 597.86132812 C-119.19356286 593.20127974 -111.71225031 588.59357707 -104.22119141 583.99951172 C-93.37504792 577.3434844 -82.62269078 570.55087456 -71.90283203 563.69384766 C-67.83018902 561.09438758 -63.74502324 558.5148812 -59.65869141 555.93701172 C-58.88380371 555.44797363 -58.10891602 554.95893555 -57.31054688 554.45507812 C-54.21826889 552.5038669 -51.12547974 550.55346667 -48.03271484 548.60302734 C-23.22456575 532.95561373 1.54610154 517.24219703 26.14575195 501.26855469 C30.1860565 498.64825938 34.239026 496.04899613 38.30224609 493.46435547 C50.11274067 485.94696109 61.82931153 478.31666277 73.45645142 470.52017212 C80.50883442 465.79321202 87.59046891 461.13812261 94.82788086 456.69841003 C99.57101825 453.77336789 104.2154653 450.71929085 108.84130859 447.61279297 C115.38392134 443.2351935 121.94410258 438.88589723 128.52490234 434.56591797 C152.02830585 419.12885913 175.40439431 403.51618408 198.69538879 387.76069641 C205.24565363 383.33196459 211.81709171 378.93638748 218.40380859 374.56201172 C241.96005992 358.90853002 265.37146324 343.01385529 288.63647461 326.93115234 C357.13735005 279.63187672 357.13735005 279.63187672 398.32568359 284.49560547 C416.09073229 287.98362113 430.58453283 298.88007094 441.23583984 313.18701172 C449.03056216 325.03334431 452.67931627 338.91297283 455.25927734 352.68701172 C455.44011651 353.63665833 455.44011651 353.63665833 455.62460899 354.60548973 C460.26108328 378.96195267 464.28841022 403.4364693 468.46630859 427.87451172 C469.9747218 436.69666721 471.48527399 445.51844633 473.00110435 454.33933067 C473.60252324 457.8455578 474.20012365 461.35242193 474.79756165 464.85932922 C475.16197453 466.98266738 475.52656309 469.10597539 475.89135742 471.22924805 C476.05599991 472.20193634 476.2206424 473.17462463 476.39027405 474.17678833 C476.54284668 475.06029465 476.69541931 475.94380096 476.85261536 476.8540802 C476.98401319 477.62315106 477.11541101 478.39222193 477.2507906 479.18459797 C477.58890611 481.1401446 477.58890611 481.1401446 478.65380859 483.06201172 C479.32025391 482.21380859 479.98669922 481.36560547 480.67333984 480.49169922 C481.33233276 479.65300293 481.33233276 479.65300293 482.00463867 478.79736328 C482.99541859 477.53634056 483.98613939 476.27527139 484.97680664 475.01416016 C487.43030424 471.89103563 489.88442488 468.7684109 492.34130859 465.64794922 C498.07431668 458.36383266 503.77487972 451.05511773 509.46166992 443.73486328 C513.01219789 439.16650111 516.57455499 434.607896 520.15380859 430.06201172 C526.69094632 421.75759096 533.1703558 413.40836496 539.65380859 405.06201172 C546.57495258 396.1522048 553.49921492 387.24549405 560.47753906 378.38037109 C566.57043058 370.63423222 572.60803121 362.84493161 578.65380859 355.06201172 C585.57270197 346.15510208 592.49382124 337.25056284 599.47094727 328.38916016 C603.21690873 323.62765728 606.9371004 318.84637043 610.65380859 314.06201172 C614.80595334 308.71713424 618.96687679 303.37968674 623.15380859 298.06201172 C629.69094632 289.75759096 636.1703558 281.40836496 642.65380859 273.06201172 C649.57270197 264.15510208 656.49382124 255.25056284 663.47094727 246.38916016 C667.21690873 241.62765728 670.9371004 236.84637043 674.65380859 232.06201172 C678.80595334 226.71713424 682.96687679 221.37968674 687.15380859 216.06201172 C693.69094632 207.75759096 700.1703558 199.40836496 706.65380859 191.06201172 C707.85949423 189.50989457 709.06522326 187.95781113 710.27099609 186.40576172 C711.15911987 185.26228271 711.15911987 185.26228271 712.06518555 184.09570312 C713.23913734 182.58626737 714.41472829 181.07810487 715.59204102 179.57128906 C718.37305789 176.01073578 721.13119485 172.43765849 723.83740234 168.81982422 C724.3353833 168.16272461 724.83336426 167.505625 725.34643555 166.82861328 C726.27580079 165.60128724 727.19555727 164.36660281 728.10375977 163.12353516 C729.34912109 161.49169922 729.34912109 161.49169922 731.65380859 159.06201172 C736.56920684 159.06201172 738.43723368 160.88967565 742.02880859 163.87451172 C743.29164459 164.8955737 744.55467048 165.91640085 745.81787109 166.93701172 C746.45885742 167.46037109 747.09984375 167.98373047 747.76025391 168.52294922 C750.61378026 170.84226718 753.50805643 173.10830753 756.40380859 175.37451172 C756.96003906 175.81166504 757.51626953 176.24881836 758.08935547 176.69921875 C765.91915788 182.85214578 773.78866671 188.95437593 781.65380859 195.06201172 C779.0051554 199.82584379 775.70390433 203.98098175 772.34130859 208.24951172 C771.07819889 209.86272339 769.81518066 211.47600668 768.55224609 213.08935547 C767.90610352 213.91290527 767.25996094 214.73645508 766.59423828 215.58496094 C763.53944799 219.48454603 760.5040411 223.39913598 757.46630859 227.31201172 C752.94099618 233.13383581 748.39821714 238.94140238 743.83666992 244.73486328 C740.09070846 249.49636616 736.37051679 254.27765301 732.65380859 259.06201172 C728.50166384 264.40688919 724.3407404 269.7443367 720.15380859 275.06201172 C713.61667087 283.36643248 707.13726138 291.71565848 700.65380859 300.06201172 C693.73266461 308.97181864 686.80840227 317.87852938 679.83007812 326.74365234 C673.7371866 334.48979122 667.69958598 342.27909182 661.65380859 350.06201172 C654.73491522 358.96892136 647.81379594 367.87346059 640.83666992 376.73486328 C637.09070846 381.49636616 633.37051679 386.27765301 629.65380859 391.06201172 C625.50166384 396.40688919 621.3407404 401.7443367 617.15380859 407.06201172 C610.61667087 415.36643248 604.13726138 423.71565848 597.65380859 432.06201172 C590.73491522 440.96892136 583.81379594 449.87346059 576.83666992 458.73486328 C573.09070846 463.49636616 569.37051679 468.27765301 565.65380859 473.06201172 C561.50166384 478.40688919 557.3407404 483.7443367 553.15380859 489.06201172 C546.61667087 497.36643248 540.13726138 505.71565848 533.65380859 514.06201172 C526.73491522 522.96892136 519.81379594 531.87346059 512.83666992 540.73486328 C509.09070846 545.49636616 505.37051679 550.27765301 501.65380859 555.06201172 C497.50166384 560.40688919 493.3407404 565.7443367 489.15380859 571.06201172 C482.61667087 579.36643248 476.13726138 587.71565848 469.65380859 596.06201172 C467.25841035 599.14568343 464.86262652 602.22905463 462.46630859 605.31201172 C461.60187134 606.42443237 461.60187134 606.42443237 460.7199707 607.55932617 C456.51217639 612.96985982 452.28317278 618.36338828 448.02807617 623.73681641 C446.13780259 626.13167374 444.34765526 628.52124173 442.65380859 631.06201172 C441.99380859 631.06201172 441.33380859 631.06201172 440.65380859 631.06201172 C435.50691459 603.41960122 430.65878917 575.72703431 425.88037109 548.01904297 C425.72848926 547.13842493 425.57660742 546.25780688 425.4201231 545.35050344 C423.35853395 533.39577002 421.30084524 521.44036632 419.24407959 509.48480225 C417.64735242 500.20371363 416.04907719 490.92289159 414.45068359 481.64208984 C414.21578193 480.27805924 414.21578193 480.27805924 413.97613478 478.88647246 C412.26968215 468.97776433 410.56188798 459.06928987 408.85064697 449.16140747 C408.700797 448.29378426 408.55094702 447.42616105 408.39655614 446.53224623 C407.65618524 442.24587254 406.91559761 437.95953638 406.1748085 433.67323494 C404.68781473 425.06690496 403.20652216 416.45964406 401.73565304 407.85054308 C400.70348598 401.81077537 399.66335161 395.77241201 398.62000656 389.73456383 C398.20740689 387.33800125 397.79772895 384.94093337 397.39131546 382.54331398 C395.45626675 371.13400062 393.56359407 359.99004904 389.65380859 349.06201172 C389.32380859 348.07201172 388.99380859 347.08201172 388.65380859 346.06201172 C368.46167555 344.18367376 349.12734504 360.99417093 333.74365234 371.89013672 C328.6287091 375.48546977 323.45466328 378.99268704 318.27880859 382.49951172 C317.22975342 383.21115479 316.18069824 383.92279785 315.09985352 384.65600586 C312.98184763 386.09263839 310.86360323 387.52891936 308.74511719 388.96484375 C305.80222381 390.96132567 302.86213603 392.96184872 299.92333984 394.96435547 C282.92029724 406.54883021 265.86596935 418.05698912 248.80799866 429.56036377 C243.23659098 433.31809525 237.66772032 437.07955523 232.10067749 440.84375 C228.29024925 443.41995992 224.47888449 445.99478237 220.66741943 448.56945801 C218.86252351 449.78914496 217.05802176 451.00941547 215.25396729 452.23034668 C204.45569056 459.53768136 193.59464317 466.73428326 182.64990234 473.8203125 C175.10693682 478.70661637 167.60946785 483.66209535 160.10751343 488.61102295 C155.64880577 491.55211631 151.18847525 494.490746 146.72802734 497.42919922 C145.85384659 498.00509796 144.97966583 498.5809967 144.07899475 499.17434692 C126.3160765 510.87313656 108.49737005 522.48665294 90.65380859 534.06201172 C89.96125977 534.5117334 89.26871094 534.96145508 88.55517578 535.42480469 C78.35842288 542.045596 68.12391579 548.60640397 57.88037109 555.15454102 C51.89724683 558.98077806 45.92336452 562.820329 39.96630859 566.68701172 C30.84797584 572.60253704 21.67245657 578.42762532 12.49755859 584.25488281 C9.6735073 586.04949371 6.85089251 587.84634014 4.02880859 589.64404297 C-12.75221766 600.33369924 -29.56833561 610.9638662 -46.44775391 621.49755859 C-52.55308838 625.30949893 -58.64315811 629.14423435 -64.72119141 632.99951172 C-73.22356134 638.38736006 -81.79528303 643.65979892 -90.37426758 648.92456055 C-97.78420378 653.4751662 -105.16706326 658.0666799 -112.53369141 662.68701172 C-121.17308576 668.10207707 -129.85510895 673.4411903 -138.57275391 678.72924805 C-145.74499369 683.08112862 -152.89308006 687.47095576 -160.03369141 691.87451172 C-179.71842281 704.00103251 -199.47953759 715.9867346 -219.37548828 727.76315308 C-228.94447462 733.42786957 -238.47508249 739.15099669 -247.97119141 744.93701172 C-259.70307529 752.08199056 -271.48017971 759.14185612 -283.34619141 766.06201172 C-284.18069824 766.54943848 -285.01520508 767.03686523 -285.875 767.5390625 C-339.46867451 798.7543334 -396.57423883 826.35790084 -459.90869141 826.24951172 C-460.97141266 826.24810684 -460.97141266 826.24810684 -462.05560303 826.24667358 C-493.0344448 826.15803286 -523.00050951 819.99135627 -550.34619141 805.06201172 C-551.41611328 804.48451172 -552.48603516 803.90701172 -553.58837891 803.31201172 C-564.93734967 796.94479695 -574.90172781 788.97306707 -584.34619141 780.06201172 C-585.41740234 779.08748047 -585.41740234 779.08748047 -586.51025391 778.09326172 C-598.57560949 766.68601644 -607.84304411 752.78151616 -615.34619141 738.06201172 C-615.6898877 737.40297852 -616.03358398 736.74394531 -616.38769531 736.06494141 C-639.79004077 690.84163846 -642.27642184 636.19507091 -627.26025391 587.96289062 C-616.33176653 554.67066396 -597.76394379 524.24162498 -573.84228516 498.74560547 C-571.71559318 496.45916199 -569.6754658 494.13214088 -567.65869141 491.74951172 C-564.86164683 488.53027173 -561.85577514 485.76033195 -558.60009766 483.01123047 C-556.98824489 481.61727114 -555.41650443 480.17638574 -553.87353516 478.70654297 C-530.93528461 456.86519892 -502.91035443 439.85669074 -474.47119141 426.18701172 C-473.13677002 425.54505859 -473.13677002 425.54505859 -471.77539062 424.89013672 C-470.89383301 424.47505859 -470.01227539 424.05998047 -469.10400391 423.63232422 C-468.20770264 423.19936035 -467.31140137 422.76639648 -466.38793945 422.3203125 C-464.0004269 421.3326538 -461.9245014 420.67646622 -459.43920898 420.08105469 C-455.12962952 418.943683 -451.97421789 417.73561733 -448.34619141 415.06201172 C-445.64369889 410.09539255 -445.41816181 404.22761765 -444.99472046 398.68914795 C-444.78038707 395.89391815 -444.48378455 393.11875415 -444.16186523 390.33398438 C-443.83820057 387.52943853 -443.5188132 384.72539305 -443.22477722 381.91757202 C-435.15773464 304.89029902 -395.14941588 223.85345639 -344.86962891 165.98779297 C-342.39937442 163.12367438 -340.02421369 160.20035948 -337.65869141 157.24951172 C-334.38987969 153.22904811 -330.94873638 149.55114673 -327.23291016 145.94482422 C-325.39899208 144.11470307 -323.71370992 142.22083986 -322.03369141 140.24951172 C-315.72176221 132.92882671 -308.77101187 126.12268867 -301.41650391 119.85498047 C-298.9634503 117.73054348 -296.59915994 115.52012535 -294.22119141 113.31201172 C-288.46980904 108.07414564 -282.43732248 103.2786041 -276.26904297 98.54345703 C-274.27313257 97.00572413 -272.289727 95.45279822 -270.30712891 93.89794922 C-197.14017362 36.81625297 -105.39024976 4.29076578 0 0 Z " transform="translate(1681.346 551.938)" class="svgShape colore0b858-0 selectable"></path><path fill="#e0b858" d="M0 0 C1.61368615 2.92613515 2.42681999 5.51377166 2.99978638 8.79975891 C3.17081879 9.76276917 3.3418512 10.72577942 3.51806641 11.7179718 C3.69789063 12.76792831 3.87771484 13.81788483 4.06298828 14.8996582 C4.25835175 16.01065887 4.45371521 17.12165955 4.65499878 18.2663269 C5.29979181 21.94339973 5.93531687 25.62200482 6.5703125 29.30078125 C7.01547611 31.85669004 7.4610279 34.41253126 7.9069519 36.9683075 C8.84066474 42.32834964 9.76995582 47.68913102 10.69580078 53.05053711 C11.76432101 59.23770753 12.84159562 65.42330543 13.92351353 71.60814601 C14.96583457 77.56805725 16.00145712 83.52910944 17.03423691 89.4906826 C17.47348771 92.02229759 17.91446798 94.55361313 18.35721207 97.08461952 C18.97581983 100.62616664 19.58680493 104.16894737 20.19580078 107.7121582 C20.37967346 108.75604202 20.56354614 109.79992584 20.75299072 110.8754425 C23.11701742 124.7610585 23.11701742 124.7610585 19.61328125 131.4140625 C19.09378906 132.41163574 18.57429688 133.40920898 18.0390625 134.43701172 C17.46929688 135.48904785 16.89953125 136.54108398 16.3125 137.625 C15.72597656 138.72730957 15.13945312 139.82961914 14.53515625 140.96533203 C-0.90682482 169.63445875 -19.66019386 196.4248039 -41 221 C-41.63421875 221.73476562 -42.2684375 222.46953125 -42.921875 223.2265625 C-44.60274577 225.16187701 -46.2999205 227.08154294 -48 229 C-48.62430908 229.70914551 -49.24861816 230.41829102 -49.8918457 231.14892578 C-55.41915502 237.36819475 -61.17246111 243.32794055 -67.06616211 249.1965332 C-68.56806925 250.69304925 -70.06451062 252.194883 -71.56054688 253.69726562 C-76.86780312 259.0084586 -82.27115039 264.14133496 -88 269 C-88.96421875 269.845625 -89.9284375 270.69125 -90.921875 271.5625 C-100.57083468 279.87873044 -110.7286535 287.47309233 -121 295 C-121.73798828 295.54333984 -122.47597656 296.08667969 -123.23632812 296.64648438 C-134.40076258 304.83236686 -146.01029342 312.08682187 -158 319 C-158.75394043 319.43554199 -159.50788086 319.87108398 -160.28466797 320.31982422 C-227.21576092 358.75828144 -301.97312319 378.8276291 -379 381 C-380.13526123 381.03504639 -380.13526123 381.03504639 -381.29345703 381.07080078 C-430.13244062 382.39197356 -479.49605266 374.68998251 -526 360 C-527.15741699 359.63567871 -528.31483398 359.27135742 -529.50732422 358.89599609 C-571.30229847 345.54665948 -610.93149869 325.98751763 -647 301 C-647.58442871 300.59571777 -648.16885742 300.19143555 -648.77099609 299.77490234 C-662.06254882 290.53417831 -674.63609092 280.4391247 -687 270 C-685.73446344 266.20339032 -684.59880443 265.91194302 -681.1640625 263.98828125 C-680.13168457 263.40240234 -679.09930664 262.81652344 -678.03564453 262.21289062 C-676.34737549 261.27219727 -676.34737549 261.27219727 -674.625 260.3125 C-672.25805201 258.97942687 -669.89449237 257.64041027 -667.53125 256.30078125 C-666.91895538 255.95475861 -666.30666077 255.60873596 -665.67581177 255.25222778 C-661.20573465 252.71570641 -656.79635153 250.09016889 -652.40625 247.41796875 C-651.17497656 246.6721041 -649.94369413 245.92625429 -648.71240234 245.18041992 C-646.92367889 244.0960475 -645.13784829 243.00795185 -643.35919189 241.90713501 C-641.70710573 240.88549709 -640.04515314 239.87986632 -638.3828125 238.875 C-637.43809082 238.29492188 -636.49336914 237.71484375 -635.52001953 237.1171875 C-633 236 -633 236 -630.89233398 236.1628418 C-628.80808271 237.08490316 -627.15847817 238.14412764 -625.33984375 239.51953125 C-624.63883545 240.0410376 -623.93782715 240.56254395 -623.21557617 241.09985352 C-622.46381104 241.66502686 -621.7120459 242.2302002 -620.9375 242.8125 C-611.57651063 249.69901812 -601.94676763 255.99507752 -592 262 C-590.78884521 262.73234863 -590.78884521 262.73234863 -589.55322266 263.47949219 C-546.37480693 289.36435947 -498.41109488 306.45342349 -448.6875 314.25 C-447.72384521 314.40114258 -446.76019043 314.55228516 -445.76733398 314.70800781 C-442.51586789 315.1859504 -439.26259176 315.60454095 -436 316 C-435.28210297 316.08720306 -434.56420593 316.17440613 -433.82455444 316.26425171 C-418.69286496 318.0457297 -403.66240019 318.36096157 -388.4375 318.3125 C-387.24723206 318.31067719 -386.05696411 318.30885437 -384.83062744 318.30697632 C-367.35011144 318.26191966 -350.28222641 317.80733472 -333 315 C-331.88270508 314.82839355 -330.76541016 314.65678711 -329.61425781 314.47998047 C-287.03819274 307.85743156 -246.1599276 294.91325919 -207.92138672 274.99755859 C-205.9240856 273.96058625 -203.91758716 272.94298687 -201.91015625 271.92578125 C-160.99485535 250.97821264 -121.72913511 220.1458843 -92 185 C-91.2265625 184.11570312 -90.453125 183.23140625 -89.65625 182.3203125 C-45.12430077 131.09725134 -15.59942442 69.25424591 -1.53735352 3.08764648 C-1 1 -1 1 0 0 Z " transform="translate(2077 1085)" class="svgShape colore0b858-1 selectable"></path><path fill="#e1b857" d="M0 0 C45 0 45 0 59 11 C61.91456433 13.27365261 64.83019162 15.5456268 67.75 17.8125 C69.27996585 19.001279 70.80991321 20.19008181 72.33984375 21.37890625 C73.1066748 21.97461426 73.87350586 22.57032227 74.66357422 23.18408203 C77.00717053 25.00557308 79.34949427 26.82868777 81.69140625 28.65234375 C89.30819691 34.582834 96.93655637 40.49675035 104.59375 46.375 C109.52854536 50.17099643 114.43545131 54.00298039 119.34765625 57.828125 C123.72144077 61.23242429 128.10358707 64.62497594 132.5 68 C141.4852752 74.89960906 150.41442988 81.87151119 159.35253906 88.83203125 C177.57683629 103.04591807 177.57683629 103.04591807 196 117 C195.83734146 115.90510254 195.67468292 114.81020508 195.50709534 113.68212891 C194.86110286 108.47925974 194.86746703 103.3223665 194.88647461 98.0859375 C194.88632858 97.0216301 194.88618256 95.95732269 194.8860321 94.86076355 C194.88672518 91.36548783 194.89448913 87.87026633 194.90234375 84.375 C194.90421008 81.94262725 194.90563297 79.51025412 194.90663147 77.07788086 C194.9104397 70.69271802 194.92025548 64.30757812 194.93133545 57.92242432 C194.94339 50.25226821 194.94795988 42.58210441 194.95378876 34.91194153 C194.96346817 23.27461176 194.98263661 11.63733227 195 0 C214.47 0 233.94 0 254 0 C254 66.99 254 133.98 254 203 C210.62748344 203 210.62748344 203 191.3125 187.75 C185.89190632 183.47810029 180.4505327 179.23362418 175 175 C169.0948894 170.41271232 163.2030719 165.80942811 157.328125 161.18359375 C152.56625344 157.4374425 147.78465416 153.71699161 143 150 C134.75317676 143.59265239 126.53681889 137.14755352 118.33203125 130.68652344 C111.23864574 125.10192914 104.12907006 119.53899315 97 114 C89.31197248 108.02671998 81.65053631 102.02125543 74 96 C69.38 92.37 64.76 88.74 60 85 C59.67 123.94 59.34 162.88 59 203 C39.53 203 20.06 203 0 203 C0 136.01 0 69.02 0 0 Z " transform="translate(1609 1631)" class="svgShape color171f43-2 selectable"></path><path fill="#e1b857" d="M0 0 C1.49377319 -0.00408127 2.98754335 -0.00943172 4.48130798 -0.01593018 C8.48132561 -0.02942403 12.48110705 -0.02438103 16.48112798 -0.01479292 C20.7016526 -0.0071033 24.92215937 -0.01426724 29.14268494 -0.01895142 C36.22406581 -0.02438166 43.30535227 -0.01728904 50.38671875 -0.00292969 C58.53191791 0.01339787 66.67689171 0.00809649 74.82208544 -0.0084089 C81.86212986 -0.02209465 88.9021071 -0.02390924 95.94216055 -0.0160929 C100.12648194 -0.01145587 104.31069798 -0.0106805 108.49501228 -0.02070236 C112.43101302 -0.02947419 116.36672776 -0.02316745 120.30269814 -0.00601959 C121.73277567 -0.00210879 123.16287798 -0.00309373 124.5929451 -0.00980759 C140.27679652 -0.07655797 157.43068748 1.12332221 169.40209961 12.35693359 C179.68381056 24.05603577 179.64266671 40.31167477 179.46850586 54.9765625 C179.43682236 57.67510536 179.42747117 60.37306529 179.42163086 63.07177734 C179.41247934 64.78662831 179.40210956 66.50147332 179.39038086 68.21630859 C179.38613098 69.02344299 179.3818811 69.83057739 179.37750244 70.66217041 C179.30456281 76.27087665 179.30456281 76.27087665 178.18725586 77.38818359 C176.33239041 77.74749189 174.46635312 78.04931254 172.59765625 78.32788086 C171.40294205 78.5079921 170.20822784 78.68810333 168.97731018 78.87367249 C167.67631882 79.06537521 166.37532745 79.25707794 165.03491211 79.45458984 C163.69586988 79.65462254 162.35687608 79.85497965 161.01792908 80.0556488 C158.20796131 80.47591323 155.39760516 80.89343897 152.58691406 81.30883789 C148.98029201 81.84191735 145.37441928 82.37986922 141.76879215 82.91963291 C139.00238412 83.33354208 136.23573386 83.74581115 133.46899223 84.15748405 C131.49131407 84.45177709 129.51373058 84.7467061 127.53614807 85.04164124 C126.33828171 85.21860031 125.14041534 85.39555939 123.90625 85.57788086 C122.84781387 85.73474869 121.78937775 85.89161652 120.6988678 86.05323792 C118.18725586 86.38818359 118.18725586 86.38818359 116.18725586 86.38818359 C116.18725586 74.17818359 116.18725586 61.96818359 116.18725586 49.38818359 C79.88725586 49.38818359 43.58725586 49.38818359 6.18725586 49.38818359 C6.18725586 83.37818359 6.18725586 117.36818359 6.18725586 152.38818359 C42.48725586 152.38818359 78.78725586 152.38818359 116.18725586 152.38818359 C116.18725586 138.52818359 116.18725586 124.66818359 116.18725586 110.38818359 C127.43974895 111.5134329 127.43974895 111.5134329 132.08007812 112.40380859 C133.11717422 112.60071289 134.15427032 112.79761719 135.22279358 113.00048828 C136.30548019 113.21092773 137.38816681 113.42136719 138.50366211 113.63818359 C140.21017189 113.96544434 140.21017189 113.96544434 141.95115662 114.29931641 C144.33569428 114.75775955 146.71980979 115.21840351 149.10351562 115.68115234 C152.76891403 116.3918985 156.43596347 117.09361487 160.10327148 117.79443359 C162.42433806 118.24181606 164.74530533 118.68971405 167.06616211 119.13818359 C168.1670668 119.34862305 169.2679715 119.5590625 170.40223694 119.77587891 C171.41096359 119.9727832 172.41969025 120.1696875 173.45898438 120.37255859 C174.79607201 120.63117676 174.79607201 120.63117676 176.16017151 120.89501953 C178.18725586 121.38818359 178.18725586 121.38818359 179.18725586 122.38818359 C179.32619411 125.37641006 179.40058672 128.33964206 179.42553711 131.32958984 C179.43360886 132.24465805 179.4416806 133.15972626 179.44999695 134.1025238 C179.46387251 136.05376274 179.47457901 138.00502631 179.48242188 139.95629883 C179.49938473 142.88657182 179.54320417 145.81564048 179.58764648 148.74560547 C179.70275248 162.62951799 179.49703817 178.12449635 170.18725586 189.38818359 C169.46538086 190.27505859 168.74350586 191.16193359 167.99975586 192.07568359 C149.69047265 207.12998312 120.6440595 203.55108514 98.47545505 203.55544066 C96.41213709 203.55615974 94.34882547 203.55830993 92.28550911 203.56093788 C85.04238601 203.57014422 77.7992811 203.57427886 70.55615234 203.57348633 C63.87726046 203.57288733 57.19844979 203.58341652 50.5195784 203.59922999 C44.72530991 203.61244446 38.93106751 203.61766446 33.13678414 203.61703092 C29.70285386 203.6167799 26.26899592 203.61940493 22.8350811 203.63020897 C-32.44471078 203.77368418 -32.44471078 203.77368418 -45.10180664 193.14599609 C-56.83815065 181.08810841 -58.12595878 164.38781159 -58.08740234 148.33422852 C-58.09251328 147.20710953 -58.09762421 146.07999054 -58.10289001 144.91871643 C-58.11665901 141.23530597 -58.11583878 137.5520853 -58.11352539 133.86865234 C-58.11741938 131.27997266 -58.12175548 128.6912936 -58.12651062 126.10261536 C-58.13394567 120.69216562 -58.13384196 115.28178793 -58.12841797 109.87133789 C-58.12238563 103.65980932 -58.13468426 97.4485077 -58.15598804 91.23701781 C-58.17588033 85.21048396 -58.17875989 79.18406698 -58.17525291 73.1574955 C-58.1757625 70.61686991 -58.18093113 68.07624042 -58.19106483 65.53563499 C-58.31454488 30.2520962 -58.31454488 30.2520962 -50.81274414 17.38818359 C-50.42731445 16.69337891 -50.04188477 15.99857422 -49.64477539 15.28271484 C-44.84931784 7.78717562 -37.4642325 4.49141959 -28.99683475 2.4831295 C-27.6276917 2.22543051 -26.25626144 1.97966131 -24.8830719 1.74447632 C-23.77110517 1.55278824 -23.77110517 1.55278824 -22.63667446 1.35722768 C-15.09820403 0.14401395 -7.62555362 -0.03585644 0 0 Z " transform="translate(1102.813 1630.612)" class="svgShape color171f43-3 selectable"></path><path fill="#e1b857" d="M0 0 C3.7981137 0.13148447 7.53701803 0.02182916 11.33398438 -0.11303711 C28.14825934 -0.1876498 28.14825934 -0.1876498 34.25247192 5.06506348 C38.64893934 10.31090569 41.70360258 16.15421082 44.56671143 22.34207153 C46.05319768 25.51082607 47.79063397 28.34252418 49.68945312 31.27954102 C50.70318116 32.95801663 51.71496011 34.63767125 52.72460938 36.31860352 C57.47419879 44.17141089 62.28612022 51.98115309 67.16210938 59.75610352 C73.81348047 70.36346789 80.38510655 81.0182698 86.93945312 91.68579102 C90.44011892 97.38276494 93.95346681 103.07176699 97.47460938 108.75610352 C98.00159424 109.60688477 98.5285791 110.45766602 99.0715332 111.33422852 C100.64311092 113.87086112 102.21503837 116.4072766 103.78710938 118.94360352 C105.89174235 122.33914817 107.99598007 125.73493696 110.09960938 129.13110352 C110.89492065 130.41500977 110.89492065 130.41500977 111.70629883 131.72485352 C115.36087629 137.6287785 119.00060947 143.54169975 122.63549805 149.45776367 C128.65010981 159.24663308 134.69186633 169.01720682 140.78710938 178.75610352 C141.40900146 179.75125977 142.03089355 180.74641602 142.67163086 181.77172852 C145.27079204 185.9298245 147.87376539 190.0850349 150.50195312 194.22485352 C151.24290012 195.40189809 151.9837919 196.57897742 152.72460938 197.75610352 C153.33175781 198.71129883 153.93890625 199.66649414 154.56445312 200.65063477 C155.78710938 202.94360352 155.78710938 202.94360352 155.78710938 205.94360352 C146.63383036 206.15239057 137.48137393 206.31217188 128.326231 206.40991306 C124.07470316 206.45683223 119.82480723 206.52043161 115.57421875 206.62255859 C111.46974879 206.72055451 107.366845 206.77420084 103.26129532 206.7974987 C101.69741274 206.81409369 100.1336134 206.84650446 98.57040024 206.89517403 C86.6473864 207.25152957 86.6473864 207.25152957 82.67408752 204.45797729 C79.71404111 200.45584213 78.42690473 195.90102049 76.86097622 191.22062016 C73.42011908 181.22113476 69.19708127 170.68204985 59.78710938 164.94360352 C43.34413483 159.03975794 23.49958022 161.72615494 6.30889022 162.6387434 C-0.62455272 163.00032432 -7.55912352 163.17330851 -14.49968088 163.33324814 C-28.74748105 163.66567158 -42.9795135 164.22649522 -57.21289062 164.94360352 C-57.62539062 165.68819824 -58.03789063 166.43279297 -58.46289062 167.19995117 C-60.03523858 170.03710916 -61.60842462 172.87379934 -63.18212891 175.71020508 C-63.8553021 176.92389393 -64.52816737 178.13775363 -65.20068359 179.35180664 C-66.1830512 181.1250759 -67.16663151 182.89766841 -68.15039062 184.67016602 C-68.73691406 185.72800293 -69.3234375 186.78583984 -69.92773438 187.87573242 C-73.32186801 193.91772544 -76.77461475 199.92662074 -80.21289062 205.94360352 C-101.99289062 205.94360352 -123.77289062 205.94360352 -146.21289062 205.94360352 C-145.36993412 201.72882101 -144.92273285 200.06115496 -142.76367188 196.67016602 C-142.25280029 195.85781494 -141.74192871 195.04546387 -141.21557617 194.20849609 C-140.65781494 193.33733154 -140.10005371 192.46616699 -139.52539062 191.56860352 C-138.32915698 189.66944383 -137.13387639 187.76968356 -135.93945312 185.86938477 C-135.32102539 184.88921387 -134.70259766 183.90904297 -134.06542969 182.89916992 C-131.12881545 178.21405501 -128.2652218 173.48532911 -125.40039062 168.75610352 C-120.43068499 160.57058362 -115.42653799 152.4070778 -110.40039062 144.25610352 C-104.76258127 135.10963928 -99.1596725 125.94286931 -93.58789062 116.75610352 C-93.23126343 116.16811981 -92.87463623 115.58013611 -92.50720215 114.97433472 C-90.74322845 112.06569831 -88.9796927 109.15679662 -87.21630859 106.24780273 C-79.31990256 93.22441018 -71.39227466 80.22114777 -63.40039062 67.25610352 C-56.46287086 56.00063237 -49.58850777 44.7081553 -42.73632812 33.40063477 C-41.67623535 31.735448 -41.67623535 31.735448 -40.59472656 30.03662109 C-38.62180483 26.82051758 -37.09371757 23.50398843 -35.55761719 20.05957031 C-27.31497922 2.73478666 -18.90005516 -0.76459314 0 0 Z M1.78710938 63.94360352 C0.61374057 65.79797804 -0.50675506 67.68579975 -1.60742188 69.58422852 C-1.95129944 70.17445297 -2.295177 70.76467743 -2.6494751 71.37278748 C-3.7781083 73.31114527 -4.9017568 75.25234412 -6.02539062 77.19360352 C-7.57038614 79.85225145 -9.11791895 82.50941663 -10.66601562 85.16625977 C-11.0520546 85.82942703 -11.43809357 86.4925943 -11.83583069 87.17585754 C-15.74297265 93.87635622 -19.74847636 100.51686681 -23.80786133 107.1262207 C-24.26249756 107.87419922 -24.71713379 108.62217773 -25.18554688 109.39282227 C-25.58008057 110.03566162 -25.97461426 110.67850098 -26.38110352 111.34082031 C-27.36643359 112.93850711 -27.36643359 112.93850711 -27.21289062 114.94360352 C-7.74289062 114.94360352 11.72710938 114.94360352 31.78710938 114.94360352 C24.95266322 102.11419544 24.95266322 102.11419544 17.84960938 89.44360352 C17.34453857 88.56357666 16.83946777 87.6835498 16.3190918 86.77685547 C13.11369141 81.20798428 9.88281967 75.65448742 6.59960938 70.13110352 C6.22521729 69.49688477 5.8508252 68.86266602 5.46508789 68.20922852 C4.60141178 66.76956429 3.6987928 65.35335627 2.78710938 63.94360352 C2.45710938 63.94360352 2.12710937 63.94360352 1.78710938 63.94360352 Z " transform="translate(1434.213 1628.056)" class="svgShape color171f43-4 selectable"></path><path fill="#e1b857" d="M0 0 C42.94125 -0.0928125 42.94125 -0.0928125 86.75 -0.1875 C100.29047363 -0.22846802 100.29047363 -0.22846802 114.10449219 -0.27026367 C125.15869141 -0.28381348 125.15869141 -0.28381348 130.33966064 -0.28633118 C133.9450234 -0.28911721 137.55025257 -0.30032401 141.15557861 -0.31672668 C145.76521168 -0.33741829 150.37465259 -0.34345245 154.98432779 -0.33921683 C156.66930802 -0.34010155 158.35429549 -0.3459825 160.03923559 -0.35764539 C173.58417887 -0.44698883 186.51926504 0.18609702 196.9375 9.78515625 C205.07036331 18.30771926 206.14379231 28.63945894 206.203125 39.984375 C206.20882507 40.84001038 206.21452515 41.69564575 206.22039795 42.57720947 C206.22981107 44.38251524 206.2363672 46.1878379 206.24023438 47.99316406 C206.24992039 50.72752532 206.28097066 53.46112786 206.3125 56.1953125 C206.38854572 68.56883543 206.20573669 79.66929856 197 89 C191.91278691 93.12128656 186.24167611 95.22285611 180 97 C181.16015625 97.52787109 181.16015625 97.52787109 182.34375 98.06640625 C193.27448574 103.24768322 200.69296786 108.36433565 205 120 C206.76871147 126.04254498 207.31971673 131.48591105 207.3359375 137.765625 C207.3459227 139.1376004 207.3459227 139.1376004 207.35610962 140.53729248 C207.36618352 142.46348069 207.37092828 144.38970344 207.37060547 146.31591797 C207.37496726 149.22813915 207.41131167 152.13882853 207.44921875 155.05078125 C207.53484945 168.8845839 206.78574992 180.46223948 196.60546875 190.80859375 C180.68398301 204.19982839 157.86778467 203.16536631 138.27392578 203.11352539 C136.73032572 203.11321818 135.18672553 203.11335404 133.64312553 203.11389065 C129.55407881 203.11411402 125.46506206 203.10836897 121.37602234 203.10128021 C117.52208372 203.09553435 113.66815195 203.09531435 109.81420898 203.09460449 C98.58446877 203.08938214 87.35473399 203.07542088 76.125 203.0625 C51.00375 203.041875 25.8825 203.02125 0 203 C0 136.01 0 69.02 0 0 Z M34 28 C34 46.15 34 64.3 34 83 C56.14419026 83.06010645 56.14419026 83.06010645 78.28839207 83.10050774 C86.20945707 83.11157959 94.13047983 83.1256242 102.05151367 83.15087891 C108.3240924 83.17086822 114.59663922 83.18372955 120.86924893 83.18817699 C124.18785092 83.19077503 127.50634083 83.19790688 130.82491875 83.21146011 C134.53754929 83.2260171 138.24999191 83.22797615 141.96264648 83.22705078 C143.05237762 83.23424133 144.14210876 83.24143188 145.26486206 83.24884033 C152.52838077 83.22930176 159.67426384 83.12281031 165.9375 79.125 C173.02861033 71.81900754 171.25459131 59.34217634 171.15234375 49.81640625 C171.00077976 43.32420653 170.56193797 37.67760795 167.25 32 C161.46946288 26.86174479 154.12292011 27.72732987 146.84423828 27.77294922 C145.6241658 27.77265717 144.40409332 27.77236511 143.14704895 27.77206421 C139.81476779 27.77321593 136.48273674 27.78322222 133.15049982 27.79721212 C129.66315611 27.80974427 126.1758088 27.81089194 122.68844604 27.81326294 C116.09061922 27.81947043 109.49285894 27.8358713 102.89506137 27.85596192 C94.64359537 27.88054076 86.39211849 27.8914644 78.140625 27.90234375 C63.42703153 27.92180332 48.71358322 27.96187093 34 28 Z M34 110 C34 131.12 34 152.24 34 174 C56.51702224 174.09015774 56.51702224 174.09015774 79.03407001 174.1507616 C87.0884413 174.16737033 95.14271913 174.18843932 103.19702148 174.22631836 C109.57507602 174.25629967 115.95305996 174.27559365 122.33118302 174.28226548 C125.70571993 174.28616304 129.08005495 174.29526855 132.4545269 174.31719017 C136.22948976 174.33902196 140.00403672 174.34196443 143.77905273 174.34057617 C145.44170166 174.35675491 145.44170166 174.35675491 147.13793945 174.3732605 C153.83783612 174.34666471 161.17547869 174.16235439 166.58483028 169.6895628 C171.47724812 164.25681101 172.31011887 158.30291694 172.30078125 151.2578125 C172.30720894 150.16700882 172.30720894 150.16700882 172.31376648 149.0541687 C172.3194824 147.52293941 172.32003034 145.99168298 172.31567383 144.46044922 C172.31251837 142.13851765 172.33598984 139.81786779 172.36132812 137.49609375 C172.36360213 136.00000159 172.36430415 134.50390604 172.36328125 133.0078125 C172.37709587 131.98241867 172.37709587 131.98241867 172.39118958 130.93630981 C172.33000076 124.44554671 170.74015184 119.16343202 166.6875 114.125 C160.39797704 109.15188882 153.59026922 109.72458187 145.93603516 109.77294922 C144.72571625 109.77265717 143.51539734 109.77236511 142.2684021 109.77206421 C138.96297877 109.77321587 135.65780763 109.78322165 132.35242891 109.79721212 C128.89311248 109.80974489 125.43379242 109.81089199 121.97445679 109.81326294 C115.42975365 109.81947024 108.88511761 109.83587087 102.34044397 109.85596192 C94.15536096 109.88054141 85.97026697 109.89146455 77.78515625 109.90234375 C63.19005194 109.92180291 48.59509398 109.96187058 34 110 Z " transform="translate(1935 1631)" class="svgShape color171f43-5 selectable"></path><path fill="#e1b857" d="M0 0 C63.36 0 126.72 0 192 0 C192 12 192 12 190.15625 15.19921875 C188.84140625 16.43091797 188.84140625 16.43091797 187.5 17.6875 C186.48341561 18.68522133 185.46785215 19.68398358 184.453125 20.68359375 C183.89818359 21.21065918 183.34324219 21.73772461 182.77148438 22.28076172 C179.47208123 25.48285611 176.38234626 28.88581078 173.25 32.25 C171.87215309 33.71323783 170.49323951 35.17547194 169.11328125 36.63671875 C165.21352177 40.77132614 161.32357832 44.91503543 157.4375 49.0625 C156.82293945 49.71831055 156.20837891 50.37412109 155.57519531 51.04980469 C154.33637667 52.37186154 153.09760703 53.6939643 151.85888672 55.01611328 C148.73997846 58.34475112 145.61992913 61.67231906 142.5 65 C141.24999459 66.33332826 139.99999459 67.66666159 138.75 69 C105 105 105 105 71.25 141 C70.6302832 141.66104736 70.01056641 142.32209473 69.37207031 143.00317383 C68.13190101 144.32598874 66.89166746 145.64874343 65.65136719 146.97143555 C62.37540682 150.46518949 59.10082645 153.9602242 55.828125 157.45703125 C55.14556641 158.18599609 54.46300781 158.91496094 53.75976562 159.66601562 C52.45076083 161.06406837 51.14214712 162.46248743 49.83398438 163.86132812 C49.24423828 164.49103516 48.65449219 165.12074219 48.046875 165.76953125 C47.27102051 166.59868042 47.27102051 166.59868042 46.47949219 167.44458008 C45.01175364 168.98764316 43.50587186 170.49412814 42 172 C116.25 172.495 116.25 172.495 192 173 C192 182.9 192 192.8 192 203 C124.35 203 56.7 203 -13 203 C-13 188 -13 188 -11.0859375 184.4375 C-9.74402344 183.2309375 -9.74402344 183.2309375 -8.375 182 C-7.35683508 181.02863958 -6.33996995 180.05591542 -5.32421875 179.08203125 C-4.78200684 178.58654785 -4.23979492 178.09106445 -3.68115234 177.58056641 C-0.69008647 174.76846062 2.0376691 171.71041696 4.8125 168.6875 C6.00253575 167.41148089 7.19395515 166.13675086 8.38671875 164.86328125 C8.98274902 164.22600098 9.5787793 163.5887207 10.19287109 162.93212891 C11.0873999 161.9757251 11.0873999 161.9757251 12 161 C19.17578771 153.32461978 26.3423241 145.64159338 33.46142578 137.91357422 C37.88276164 133.11782156 42.33496065 128.35124298 46.7890625 123.5859375 C50.54029543 119.57030049 54.27686457 115.54169247 58 111.5 C62.90729236 106.17283236 67.84522023 100.87493069 72.79125977 95.58374023 C76.52183591 91.59046914 80.23627106 87.5829724 83.9375 83.5625 C89.06793675 77.99073536 94.24597564 72.46465147 99.43115234 66.94384766 C103.80987049 62.27836772 108.16282584 57.59035171 112.49414062 52.88085938 C115.22047481 49.91905233 117.96024101 46.97071313 120.71484375 44.03515625 C121.34447021 43.36363525 121.97409668 42.69211426 122.62280273 42.00024414 C123.84081191 40.70239668 125.0602898 39.40592542 126.28149414 38.11108398 C126.83828857 37.51755127 127.39508301 36.92401855 127.96875 36.3125 C128.70254883 35.53326172 128.70254883 35.53326172 129.45117188 34.73828125 C131.38680421 32.56588178 133.18236369 30.27204538 135 28 C90.45 28 45.9 28 0 28 C0 18.76 0 9.52 0 0 Z " transform="translate(2271 1631)" class="svgShape color171f42-6 selectable"></path><path fill="#e1b857" d="M0 0 C11.55 0 23.1 0 35 0 C35 66.99 35 133.98 35 203 C23.45 203 11.9 203 0 203 C0 136.01 0 69.02 0 0 Z " transform="translate(2183 1631)" class="svgShape color171f42-7 selectable"></path><path d="M0 0 C5.218125 -0.061875 10.43625 -0.12375 15.8125 -0.1875 C17.45581299 -0.21481201 19.09912598 -0.24212402 20.79223633 -0.27026367 C22.08411865 -0.27775635 23.37600098 -0.28524902 24.70703125 -0.29296875 C25.38262085 -0.30831665 26.05821045 -0.32366455 26.75427246 -0.33947754 C29.59696083 -0.34106475 31.53588719 -0.31283163 33.9309082 1.30151367 C35.72408597 4.15036905 35.43081133 7.24433934 35.375 10.5 C35.38660156 11.17675781 35.39820312 11.85351562 35.41015625 12.55078125 C35.39364857 15.34057903 35.30978201 17.48580401 33.8515625 19.90625 C31.31240174 21.40617619 28.90481308 21.67724299 26 22 C26.86625 22.69867187 27.7325 23.39734375 28.625 24.1171875 C29.75025521 25.03614592 30.87524139 25.95543384 32 26.875 C32.57234375 27.33519531 33.1446875 27.79539062 33.734375 28.26953125 C35.19398819 29.46849922 36.6013757 30.73041545 38 32 C38 32.66 38 33.32 38 34 C34.30857987 34.75079731 32.57710325 35.00158891 29 34 C25.99581935 31.75887558 23.45253579 29.02978437 20.82861328 26.36523438 C17.59603912 23.18327364 15.39688527 21.18756493 10.6875 20.75 C8.8621875 20.87375 8.8621875 20.87375 7 21 C7 25.29 7 29.58 7 34 C4.69 34 2.38 34 0 34 C0 22.78 0 11.56 0 0 Z M7 5 C7 8.63 7 12.26 7 16 C10.29215238 16.08066072 13.58234578 16.14033374 16.875 16.1875 C18.28072266 16.22520508 18.28072266 16.22520508 19.71484375 16.26367188 C20.61074219 16.27333984 21.50664062 16.28300781 22.4296875 16.29296875 C23.67081299 16.31653442 23.67081299 16.31653442 24.93701172 16.34057617 C25.95819092 16.17199097 25.95819092 16.17199097 27 16 C29.38798682 13.09414313 29.38798682 13.09414313 28.6875 9.375 C28.35886877 6.17495688 28.35886877 6.17495688 27 5 C25.5112814 4.91330568 24.018555 4.89296506 22.52734375 4.90234375 C21.17866211 4.90717773 21.17866211 4.90717773 19.80273438 4.91210938 C18.85720703 4.92048828 17.91167969 4.92886719 16.9375 4.9375 C15.98810547 4.94201172 15.03871094 4.94652344 14.06054688 4.95117188 C11.70700469 4.96299872 9.35349468 4.98093479 7 5 Z " transform="translate(2049 1894)" fill="#e1b857" class="svgShape color000000-8 selectable"></path><path d="M0 0 C0.72110962 -0.00287018 1.44221924 -0.00574036 2.18518066 -0.00869751 C3.70825995 -0.01073702 5.2313655 -0.00521497 6.75439453 0.00732422 C9.08555678 0.02338107 11.41498542 0.0074734 13.74609375 -0.01171875 C15.22656633 -0.0097363 16.70703782 -0.00589257 18.1875 0 C18.8844397 -0.00607269 19.58137939 -0.01214539 20.29943848 -0.0184021 C23.0445709 0.02148771 25.1310786 0.12826868 27.52954102 1.52880859 C30.11557233 6.07201295 29.05898784 12.3249339 29.03125 17.3984375 C29.0612207 19.34363281 29.0612207 19.34363281 29.09179688 21.328125 C29.09115234 22.56820313 29.09050781 23.80828125 29.08984375 25.0859375 C29.09262329 26.79330078 29.09262329 26.79330078 29.09545898 28.53515625 C28.59375 31.3984375 28.59375 31.3984375 27.00219727 33.26806641 C23.74755992 34.795585 21.15449204 34.78716941 17.5625 34.796875 C16.88956909 34.79974518 16.21663818 34.80261536 15.52331543 34.80557251 C14.10456498 34.80760846 12.68578616 34.80211132 11.26708984 34.78955078 C9.100596 34.77348826 6.93596736 34.78941304 4.76953125 34.80859375 C3.38801673 34.80661123 2.00650337 34.80276737 0.625 34.796875 C-0.62732422 34.79349121 -1.87964844 34.79010742 -3.16992188 34.78662109 C-6.66686091 34.36717835 -8.12484313 34.07845189 -10.40625 31.3984375 C-10.90795898 28.53515625 -10.90795898 28.53515625 -10.90234375 25.0859375 C-10.90298828 23.84585937 -10.90363281 22.60578125 -10.90429688 21.328125 C-10.88431641 20.03132813 -10.86433594 18.73453125 -10.84375 17.3984375 C-10.85083984 16.10164063 -10.85792969 14.80484375 -10.86523438 13.46875 C-10.80188812 4.09350443 -10.80188812 4.09350443 -9.34204102 1.52880859 C-6.35983265 -0.21259949 -3.35735815 -0.0292539 0 0 Z M-4.40625 5.3984375 C-4.40625 12.9884375 -4.40625 20.5784375 -4.40625 28.3984375 C4.50375 28.3984375 13.41375 28.3984375 22.59375 28.3984375 C22.59375 20.8084375 22.59375 13.2184375 22.59375 5.3984375 C13.68375 5.3984375 4.77375 5.3984375 -4.40625 5.3984375 Z " transform="translate(1186.406 1893.602)" fill="#e1b857" class="svgShape color000000-9 selectable"></path><path d="M0 0 C1.25361328 -0.01224609 2.50722656 -0.02449219 3.79882812 -0.03710938 C5.59803711 -0.04000977 5.59803711 -0.04000977 7.43359375 -0.04296875 C8.53630615 -0.04707764 9.63901855 -0.05118652 10.77514648 -0.05541992 C13.5625 0.1875 13.5625 0.1875 16.5625 2.1875 C17.25 5.8125 17.25 5.8125 17.5625 9.1875 C15.5825 9.5175 13.6025 9.8475 11.5625 10.1875 C11.5625 8.5375 11.5625 6.8875 11.5625 5.1875 C3.9725 5.1875 -3.6175 5.1875 -11.4375 5.1875 C-11.4375 8.1575 -11.4375 11.1275 -11.4375 14.1875 C-10.27963989 14.16393433 -10.27963989 14.16393433 -9.09838867 14.13989258 C-5.60733338 14.07760393 -2.11639491 14.03852827 1.375 14 C3.19741211 13.96229492 3.19741211 13.96229492 5.05664062 13.92382812 C6.80170898 13.90932617 6.80170898 13.90932617 8.58203125 13.89453125 C9.65557861 13.8788208 10.72912598 13.86311035 11.83520508 13.84692383 C14.5625 14.1875 14.5625 14.1875 16.40917969 15.51855469 C18.22069074 18.13995382 17.99643715 20.48612535 18 23.625 C18.01933594 24.75808594 18.03867188 25.89117188 18.05859375 27.05859375 C17.45020784 30.89573637 16.59952913 31.83009892 13.5625 34.1875 C10.6015625 34.70507812 10.6015625 34.70507812 7.1875 34.71875 C5.95515625 34.72390625 4.7228125 34.7290625 3.453125 34.734375 C2.16921875 34.71890625 0.8853125 34.7034375 -0.4375 34.6875 C-2.36335938 34.71070313 -2.36335938 34.71070313 -4.328125 34.734375 C-5.56046875 34.72921875 -6.7928125 34.7240625 -8.0625 34.71875 C-9.75246094 34.71198242 -9.75246094 34.71198242 -11.4765625 34.70507812 C-15.07398947 34.0762403 -16.27565398 33.08823784 -18.4375 30.1875 C-18.6875 26.9375 -18.6875 26.9375 -18.4375 24.1875 C-16.4575 23.8575 -14.4775 23.5275 -12.4375 23.1875 C-12.4375 24.8375 -12.4375 26.4875 -12.4375 28.1875 C-4.5175 28.1875 3.4025 28.1875 11.5625 28.1875 C11.5625 25.2175 11.5625 22.2475 11.5625 19.1875 C10.78535645 19.19797363 10.00821289 19.20844727 9.20751953 19.21923828 C5.700879 19.26070282 2.19428994 19.28679578 -1.3125 19.3125 C-2.53582031 19.32925781 -3.75914063 19.34601563 -5.01953125 19.36328125 C-6.76943359 19.37294922 -6.76943359 19.37294922 -8.5546875 19.3828125 C-9.63347168 19.39328613 -10.71225586 19.40375977 -11.82373047 19.41455078 C-14.4375 19.1875 -14.4375 19.1875 -16.4375 17.1875 C-18.10423439 12.68731715 -17.94387533 7.85130466 -16.5625 3.3125 C-13.73277508 -2.03253596 -5.23859883 0.00268508 0 0 Z " transform="translate(1927.438 1893.813)" fill="#e1b857" class="svgShape color000000-10 selectable"></path><path d="M0 0 C1.70736328 0.02018188 1.70736328 0.02018188 3.44921875 0.04077148 C5.30933594 0.05140625 5.30933594 0.05140625 7.20703125 0.06225586 C9.15222656 0.1115625 9.15222656 0.1115625 11.13671875 0.16186523 C13.08191406 0.17056641 13.08191406 0.17056641 15.06640625 0.17944336 C24.69449356 0.30454844 24.69449356 0.30454844 28.13671875 2.59936523 C28.32421875 6.22436523 28.32421875 6.22436523 28.13671875 9.59936523 C26.48671875 9.92936523 24.83671875 10.25936523 23.13671875 10.59936523 C23.13671875 8.94936523 23.13671875 7.29936523 23.13671875 5.59936523 C15.54671875 5.59936523 7.95671875 5.59936523 0.13671875 5.59936523 C0.13671875 8.56936523 0.13671875 11.53936523 0.13671875 14.59936523 C0.90862549 14.57841797 1.68053223 14.5574707 2.47583008 14.53588867 C5.9668276 14.45283852 9.45761755 14.40073929 12.94921875 14.34936523 C14.16416016 14.31584961 15.37910156 14.28233398 16.63085938 14.24780273 C18.37592773 14.2284668 18.37592773 14.2284668 20.15625 14.20874023 C21.76657104 14.17731934 21.76657104 14.17731934 23.40942383 14.14526367 C26.13671875 14.59936523 26.13671875 14.59936523 27.98339844 16.4440918 C29.49668605 19.27205604 29.57022296 21.40273006 29.57421875 24.59936523 C29.59355469 25.63061523 29.61289063 26.66186523 29.6328125 27.72436523 C29.00417225 31.36750876 28.02610865 32.33719671 25.13671875 34.59936523 C22.17578125 35.11694336 22.17578125 35.11694336 18.76171875 35.13061523 C17.529375 35.13577148 16.29703125 35.14092773 15.02734375 35.14624023 C13.7434375 35.13077148 12.45953125 35.11530273 11.13671875 35.09936523 C9.21085937 35.12256836 9.21085937 35.12256836 7.24609375 35.14624023 C6.01375 35.14108398 4.78140625 35.13592773 3.51171875 35.13061523 C1.82175781 35.12384766 1.82175781 35.12384766 0.09765625 35.11694336 C-3.49977072 34.48810553 -4.70143523 33.50010307 -6.86328125 30.59936523 C-7.11328125 27.34936523 -7.11328125 27.34936523 -6.86328125 24.59936523 C-4.88328125 24.26936523 -2.90328125 23.93936523 -0.86328125 23.59936523 C-0.86328125 25.24936523 -0.86328125 26.89936523 -0.86328125 28.59936523 C7.05671875 28.59936523 14.97671875 28.59936523 23.13671875 28.59936523 C23.13671875 25.62936523 23.13671875 22.65936523 23.13671875 19.59936523 C22.36481201 19.62554932 21.59290527 19.6517334 20.79760742 19.67871094 C17.30668417 19.78252142 13.81608505 19.84764279 10.32421875 19.91186523 C9.10927734 19.95375977 7.89433594 19.9956543 6.64257812 20.03881836 C5.47919922 20.05493164 4.31582031 20.07104492 3.1171875 20.08764648 C1.50686646 20.12692261 1.50686646 20.12692261 -0.13598633 20.16699219 C-2.86328125 19.59936523 -2.86328125 19.59936523 -4.7121582 17.21142578 C-5.86226698 14.60166675 -6.26815206 12.92713568 -6.23828125 10.09936523 C-6.24601562 9.36717773 -6.25375 8.63499023 -6.26171875 7.88061523 C-5.52381447 3.6557515 -4.37851399 0.91654603 0 0 Z " transform="translate(2372.863 1893.4)" fill="#e1b857" class="svgShape color000000-11 selectable"></path><path d="M0 0 C1.13824219 0.00185303 2.27648438 0.00370605 3.44921875 0.00561523 C4.68929688 0.0049707 5.929375 0.00432617 7.20703125 0.00366211 C8.50382812 0.02364258 9.800625 0.04362305 11.13671875 0.06420898 C12.43351562 0.05711914 13.7303125 0.0500293 15.06640625 0.04272461 C24.57703747 0.10698563 24.57703747 0.10698563 27.01953125 1.82958984 C28.69759638 4.34118689 28.33246672 6.56548943 28.13671875 9.50170898 C26.48671875 9.83170898 24.83671875 10.16170898 23.13671875 10.50170898 C23.13671875 8.85170898 23.13671875 7.20170898 23.13671875 5.50170898 C15.54671875 5.50170898 7.95671875 5.50170898 0.13671875 5.50170898 C0.13671875 8.47170898 0.13671875 11.44170898 0.13671875 14.50170898 C0.90862549 14.4755249 1.68053223 14.44934082 2.47583008 14.42236328 C5.96675333 14.3185528 9.45735245 14.25343143 12.94921875 14.18920898 C14.77163086 14.12636719 14.77163086 14.12636719 16.63085938 14.06225586 C17.79423828 14.04614258 18.95761719 14.0300293 20.15625 14.01342773 C21.76657104 13.97415161 21.76657104 13.97415161 23.40942383 13.93408203 C26.13671875 14.50170898 26.13671875 14.50170898 27.98779297 16.8737793 C29.21183537 19.67352269 29.51025549 21.52645726 29.44921875 24.56420898 C29.44535156 25.40081055 29.44148438 26.23741211 29.4375 27.09936523 C29.11567379 29.66979531 28.5136854 31.31705164 27.13671875 33.50170898 C22.57868227 35.78072723 16.26592969 34.73187069 11.26171875 34.75170898 C9.32232422 34.78264648 9.32232422 34.78264648 7.34375 34.81420898 C6.10238281 34.81936523 4.86101562 34.82452148 3.58203125 34.82983398 C1.87297607 34.84385254 1.87297607 34.84385254 0.12939453 34.8581543 C-3.18160764 34.46379444 -4.58480288 33.91746171 -6.86328125 31.50170898 C-7.11328125 27.81420898 -7.11328125 27.81420898 -6.86328125 24.50170898 C-4.88328125 24.17170898 -2.90328125 23.84170898 -0.86328125 23.50170898 C-0.86328125 25.15170898 -0.86328125 26.80170898 -0.86328125 28.50170898 C7.05671875 28.50170898 14.97671875 28.50170898 23.13671875 28.50170898 C23.13671875 25.53170898 23.13671875 22.56170898 23.13671875 19.50170898 C22.36481201 19.52265625 21.59290527 19.54360352 20.79760742 19.56518555 C17.3066099 19.6482357 13.81581995 19.70033493 10.32421875 19.75170898 C9.10927734 19.78522461 7.89433594 19.81874023 6.64257812 19.85327148 C4.89750977 19.87260742 4.89750977 19.87260742 3.1171875 19.89233398 C1.50686646 19.92375488 1.50686646 19.92375488 -0.13598633 19.95581055 C-2.86328125 19.50170898 -2.86328125 19.50170898 -4.7121582 17.64331055 C-6.15964704 14.95033662 -6.2633949 13.04883131 -6.23828125 10.00170898 C-6.24601562 9.06327148 -6.25375 8.12483398 -6.26171875 7.15795898 C-5.62237417 2.8956618 -4.37986627 0.76744758 0 0 Z " transform="translate(1333.863 1893.498)" fill="#e1b857" class="svgShape color000000-12 selectable"></path><path d="M0 0 C10.89 0 21.78 0 33 0 C33 1.65 33 3.3 33 5 C24.42 5 15.84 5 7 5 C7 7.64 7 10.28 7 13 C12.28 13 17.56 13 23 13 C23 14.98 23 16.96 23 19 C17.72 19 12.44 19 7 19 C7 21.97 7 24.94 7 28 C15.91 28 24.82 28 34 28 C34 29.98 34 31.96 34 34 C22.78 34 11.56 34 0 34 C0 22.78 0 11.56 0 0 Z " transform="translate(2300 1894)" fill="#e1b857" class="svgShape color000000-13 selectable"></path><path d="M0 0 C10.89 0 21.78 0 33 0 C33 1.65 33 3.3 33 5 C24.42 5 15.84 5 7 5 C7 7.64 7 10.28 7 13 C12.28 13 17.56 13 23 13 C23 14.98 23 16.96 23 19 C17.72 19 12.44 19 7 19 C7 21.97 7 24.94 7 28 C15.91 28 24.82 28 34 28 C34 29.98 34 31.96 34 34 C22.78 34 11.56 34 0 34 C0 22.78 0 11.56 0 0 Z " transform="translate(1982 1894)" fill="#e1b857" class="svgShape color000000-14 selectable"></path><path d="M0 0 C1.92779297 -0.0009668 1.92779297 -0.0009668 3.89453125 -0.00195312 C4.89734131 0.01363647 4.89734131 0.01363647 5.92041016 0.02954102 C7.96208974 0.05849928 10.00117216 0.0501505 12.04296875 0.03710938 C21.93069766 0.101573 21.93069766 0.101573 24.35864258 1.88183594 C25.86452098 4.07160237 25.77057992 5.55400559 25.65625 8.18359375 C25.61564453 9.39595703 25.61564453 9.39595703 25.57421875 10.6328125 C25.52201172 11.55513672 25.52201172 11.55513672 25.46875 12.49609375 C23.48875 12.82609375 21.50875 13.15609375 19.46875 13.49609375 C19.46875 10.85609375 19.46875 8.21609375 19.46875 5.49609375 C12.20875 5.49609375 4.94875 5.49609375 -2.53125 5.49609375 C-2.53125 13.08609375 -2.53125 20.67609375 -2.53125 28.49609375 C4.72875 28.49609375 11.98875 28.49609375 19.46875 28.49609375 C19.46875 25.85609375 19.46875 23.21609375 19.46875 20.49609375 C21.44875 20.82609375 23.42875 21.15609375 25.46875 21.49609375 C25.57699843 23.09877195 25.65445645 24.70355123 25.71875 26.30859375 C25.76515625 27.20191406 25.8115625 28.09523438 25.859375 29.015625 C25.46875 31.49609375 25.46875 31.49609375 23.82910156 33.12402344 C19.10087058 35.87254 13.29743263 34.96415449 7.96875 34.93359375 C6.11443359 34.96356445 6.11443359 34.96356445 4.22265625 34.99414062 C3.03542969 34.99349609 1.84820313 34.99285156 0.625 34.9921875 C-0.45974609 34.99404053 -1.54449219 34.99589355 -2.66210938 34.99780273 C-6.27153269 34.36664507 -7.43229596 33.47970261 -9.53125 30.49609375 C-10.03295898 27.71875 -10.03295898 27.71875 -10.02734375 24.55859375 C-10.02798828 23.41648437 -10.02863281 22.274375 -10.02929688 21.09765625 C-10.00931641 19.90914062 -9.98933594 18.720625 -9.96875 17.49609375 C-9.97583984 16.30757812 -9.98292969 15.1190625 -9.99023438 13.89453125 C-9.92736192 5.32453206 -9.92736192 5.32453206 -8.41235352 2.15600586 C-5.66253407 -0.27047337 -3.62561039 -0.00569286 0 0 Z " transform="translate(2239.531 1893.504)" fill="#e1b857" class="svgShape color000000-15 selectable"></path><path d="M0 0 C1.92779297 -0.0009668 1.92779297 -0.0009668 3.89453125 -0.00195312 C4.89734131 0.01363647 4.89734131 0.01363647 5.92041016 0.02954102 C7.96208974 0.05849928 10.00117216 0.0501505 12.04296875 0.03710938 C21.93069766 0.101573 21.93069766 0.101573 24.35864258 1.88183594 C25.86452098 4.07160237 25.77057992 5.55400559 25.65625 8.18359375 C25.61564453 9.39595703 25.61564453 9.39595703 25.57421875 10.6328125 C25.52201172 11.55513672 25.52201172 11.55513672 25.46875 12.49609375 C23.48875 12.82609375 21.50875 13.15609375 19.46875 13.49609375 C19.46875 10.85609375 19.46875 8.21609375 19.46875 5.49609375 C12.20875 5.49609375 4.94875 5.49609375 -2.53125 5.49609375 C-2.53125 13.08609375 -2.53125 20.67609375 -2.53125 28.49609375 C4.72875 28.49609375 11.98875 28.49609375 19.46875 28.49609375 C19.46875 25.85609375 19.46875 23.21609375 19.46875 20.49609375 C21.44875 20.82609375 23.42875 21.15609375 25.46875 21.49609375 C25.57759119 22.91102926 25.65472617 24.32842318 25.71875 25.74609375 C25.76515625 26.535 25.8115625 27.32390625 25.859375 28.13671875 C25.31443635 31.42814822 24.05344487 32.43111824 21.46875 34.49609375 C18.59960938 35.01367188 18.59960938 35.01367188 15.3125 35.02734375 C14.12527344 35.0325 12.93804688 35.03765625 11.71484375 35.04296875 C10.47863281 35.0275 9.24242187 35.01203125 7.96875 34.99609375 C6.73253906 35.0115625 5.49632812 35.02703125 4.22265625 35.04296875 C2.44181641 35.03523438 2.44181641 35.03523438 0.625 35.02734375 C-0.45974609 35.02283203 -1.54449219 35.01832031 -2.66210938 35.01367188 C-6.26344195 34.36401011 -7.43330634 33.47546621 -9.53125 30.49609375 C-10.03295898 27.71875 -10.03295898 27.71875 -10.02734375 24.55859375 C-10.02798828 23.41648437 -10.02863281 22.274375 -10.02929688 21.09765625 C-10.00931641 19.90914062 -9.98933594 18.720625 -9.96875 17.49609375 C-9.97583984 16.30757812 -9.98292969 15.1190625 -9.99023438 13.89453125 C-9.92736192 5.32453206 -9.92736192 5.32453206 -8.41235352 2.15600586 C-5.66253407 -0.27047337 -3.62561039 -0.00569286 0 0 Z " transform="translate(1115.531 1893.504)" fill="#e1b857" class="svgShape color000000-16 selectable"></path><path d="M0 0 C5.62330905 0 5.62330905 0 8.48828125 2.81640625 C9.10872314 3.41291992 9.72916504 4.00943359 10.3684082 4.62402344 C11.0099585 5.2637207 11.65150879 5.90341797 12.3125 6.5625 C13.64500782 7.85111459 14.97833359 9.13888395 16.3125 10.42578125 C16.94800781 11.04533691 17.58351563 11.66489258 18.23828125 12.30322266 C20.9303108 14.89601719 23.74436658 17.33513076 26.58203125 19.765625 C27.76512094 20.79553228 28.89085388 21.89085388 30 23 C30.33 15.41 30.66 7.82 31 0 C32.98 0 34.96 0 37 0 C37 11.22 37 22.44 37 34 C30.27781983 32.87963664 30.27781983 32.87963664 27.125 29.375 C23.28319234 25.27755875 19.26225077 21.66287175 15 18 C12.36 15.69 9.72 13.38 7 11 C6.67 18.59 6.34 26.18 6 34 C4.02 34 2.04 34 0 34 C0 22.78 0 11.56 0 0 Z " transform="translate(1654 1894)" fill="#e1b857" class="svgShape color000000-17 selectable"></path><path d="M0 0 C5.89500359 0 7.41036891 1.67417565 11.3125 5.5625 C12.46286885 6.66736761 13.61390883 7.7715369 14.765625 8.875 C15.31927734 9.41253906 15.87292969 9.95007812 16.44335938 10.50390625 C18.43280096 12.41596679 20.48316477 14.24894446 22.5625 16.0625 C23.14128906 16.56910156 23.72007813 17.07570313 24.31640625 17.59765625 C26.15770888 19.13136308 28.08289351 20.56217013 30 22 C30.33 14.74 30.66 7.48 31 0 C32.98 0 34.96 0 37 0 C37 11.22 37 22.44 37 34 C31.76375406 32.95275081 29.80661765 31.41931593 26.1875 27.875 C25.12822471 26.870439 24.06832786 25.86653301 23.0078125 24.86328125 C22.49508789 24.3729541 21.98236328 23.88262695 21.45410156 23.37744141 C19.53212963 21.55679573 17.55708622 19.80302295 15.5625 18.0625 C14.98628906 17.55847656 14.41007812 17.05445313 13.81640625 16.53515625 C11.58094769 14.64583321 9.28553465 12.82842772 7 11 C6.67 18.59 6.34 26.18 6 34 C4.02 34 2.04 34 0 34 C0 22.78 0 11.56 0 0 Z " transform="translate(1253 1894)" fill="#e1b857" class="svgShape color000000-18 selectable"></path><path d="M0 0 C1.24007813 -0.00257812 2.48015625 -0.00515625 3.7578125 -0.0078125 C5.05460937 -0.00007813 6.35140625 0.00765625 7.6875 0.015625 C9.63269531 0.00402344 9.63269531 0.00402344 11.6171875 -0.0078125 C12.85726563 -0.00523438 14.09734375 -0.00265625 15.375 0 C16.51324219 0.00225586 17.65148438 0.00451172 18.82421875 0.00683594 C21.6875 0.265625 21.6875 0.265625 24.6875 2.265625 C25.19921875 4.6484375 25.19921875 4.6484375 25.375 7.390625 C25.47361328 8.75574219 25.47361328 8.75574219 25.57421875 10.1484375 C25.63029297 11.19644531 25.63029297 11.19644531 25.6875 12.265625 C23.3775 12.595625 21.0675 12.925625 18.6875 13.265625 C18.6875 10.625625 18.6875 7.985625 18.6875 5.265625 C11.4275 5.265625 4.1675 5.265625 -3.3125 5.265625 C-3.3125 12.855625 -3.3125 20.445625 -3.3125 28.265625 C3.9475 28.265625 11.2075 28.265625 18.6875 28.265625 C18.6875 25.625625 18.6875 22.985625 18.6875 20.265625 C20.9975 20.595625 23.3075 20.925625 25.6875 21.265625 C25.60056859 23.05821058 25.49239496 24.84977644 25.375 26.640625 C25.28798828 28.13722656 25.28798828 28.13722656 25.19921875 29.6640625 C25.03035156 30.52257813 24.86148437 31.38109375 24.6875 32.265625 C19.61863716 35.64486689 13.63868586 34.59291423 7.6875 34.578125 C6.39070313 34.59423828 5.09390625 34.61035156 3.7578125 34.62695312 C2.51773437 34.62759766 1.27765625 34.62824219 0 34.62890625 C-1.70736328 34.63337769 -1.70736328 34.63337769 -3.44921875 34.63793945 C-6.3125 34.265625 -6.3125 34.265625 -8.18212891 33.15332031 C-9.87284475 30.32986137 -9.70160875 27.97027757 -9.7109375 24.69921875 C-9.71480469 23.40951172 -9.71867187 22.11980469 -9.72265625 20.79101562 C-9.71322998 19.78518433 -9.71322998 19.78518433 -9.70361328 18.7590332 C-9.68752661 16.70652023 -9.70348134 14.65596815 -9.72265625 12.60351562 C-9.71878906 11.31509766 -9.71492188 10.02667969 -9.7109375 8.69921875 C-9.70755371 7.51384521 -9.70416992 6.32847168 -9.70068359 5.10717773 C-9.50853271 3.70060913 -9.50853271 3.70060913 -9.3125 2.265625 C-5.76378499 -0.10018501 -4.20658047 0.00833694 0 0 Z " transform="translate(1738.313 1893.734)" fill="#e1b857" class="svgShape color000000-19 selectable"></path><path d="M0 0 C2.31 0 4.62 0 7 0 C7 9.24 7 18.48 7 28 C14.59 28 22.18 28 30 28 C30 18.76 30 9.52 30 0 C31.98 0 33.96 0 36 0 C36.09890664 4.35988072 36.17148376 8.71916673 36.21972656 13.07983398 C36.23983759 14.56302261 36.26713074 16.04613199 36.30175781 17.52905273 C36.35030352 19.66149435 36.37297195 21.79288777 36.390625 23.92578125 C36.41157227 25.20880127 36.43251953 26.49182129 36.45410156 27.8137207 C36 31 36 31 34.37402344 32.91503906 C29.30575676 35.23130573 23.46914282 34.46770109 18 34.4375 C16.71609375 34.45748047 15.4321875 34.47746094 14.109375 34.49804688 C12.87703125 34.49740234 11.6446875 34.49675781 10.375 34.49609375 C9.24835938 34.49794678 8.12171875 34.4997998 6.9609375 34.50170898 C4 34 4 34 1.62597656 32.40356445 C-0.57869849 29.14455156 -0.45697546 26.96155218 -0.390625 23.046875 C-0.38496521 22.38665344 -0.37930542 21.72643188 -0.37347412 21.04620361 C-0.3511623 18.94671737 -0.30098314 16.8489663 -0.25 14.75 C-0.22992794 13.3229414 -0.21167839 11.89585592 -0.1953125 10.46875 C-0.15131693 6.97860707 -0.08232876 3.48947301 0 0 Z " transform="translate(1400 1894)" fill="#e1b857" class="svgShape color000000-20 selectable"></path><path d="M0 0 C2.64 0 5.28 0 8 0 C10.06306376 3.64551459 12.12534659 7.29147039 14.1875 10.9375 C14.76564453 11.95908203 15.34378906 12.98066406 15.93945312 14.03320312 C17.08417946 16.0574932 18.22726889 18.08270989 19.36865234 20.10888672 C20.42056853 21.9731177 21.47779679 23.83436607 22.54150391 25.69189453 C22.99831543 26.4961084 23.45512695 27.30032227 23.92578125 28.12890625 C24.32837158 28.83217041 24.73096191 29.53543457 25.14575195 30.26000977 C26 32 26 32 26 34 C23.69 34 21.38 34 19 34 C17.68 31.69 16.36 29.38 15 27 C7.74 27 0.48 27 -7 27 C-8.32 29.31 -9.64 31.62 -11 34 C-12.98 34 -14.96 34 -17 34 C-16.29160032 29.9696018 -14.33015246 26.60019813 -12.40234375 23.046875 C-12.04862198 22.38665344 -11.69490021 21.72643188 -11.33045959 21.04620361 C-10.2036074 18.94521738 -9.07065244 16.84759374 -7.9375 14.75 C-7.17081868 13.32313436 -6.40453798 11.89605337 -5.63867188 10.46875 C-3.76374831 6.97665404 -1.88334588 3.48756035 0 0 Z M4 6 C2.97784507 7.53472242 2.00780641 9.10428511 1.0625 10.6875 C0.53785156 11.55761719 0.01320313 12.42773438 -0.52734375 13.32421875 C-2.2437015 16.31367132 -2.2437015 16.31367132 -4 21 C1.28 21 6.56 21 12 21 C9.69 16.05 7.38 11.1 5 6 C4.67 6 4.34 6 4 6 Z " transform="translate(1596 1894)" fill="#e1b857" class="svgShape color000000-21 selectable"></path><path d="M0 0 C2.31 0 4.62 0 7 0 C7.38857178 0.72179443 7.77714355 1.44358887 8.17749023 2.18725586 C9.92899517 5.43832796 11.68320983 8.68793004 13.4375 11.9375 C14.04916016 13.07380859 14.66082031 14.21011719 15.29101562 15.38085938 C16.1659668 17.00024414 16.1659668 17.00024414 17.05859375 18.65234375 C17.59798584 19.65257568 18.13737793 20.65280762 18.69311523 21.68334961 C19.80234265 23.8918228 19.80234265 23.8918228 21 25 C21.35827881 24.27820557 21.71655762 23.55641113 22.08569336 22.81274414 C23.70089456 19.56163067 25.3191546 16.3120494 26.9375 13.0625 C27.50146484 11.92619141 28.06542969 10.78988281 28.64648438 9.61914062 C29.18466797 8.53955078 29.72285156 7.45996094 30.27734375 6.34765625 C30.77484131 5.34742432 31.27233887 4.34719238 31.78491211 3.31665039 C33 1 33 1 34 0 C36.33297433 -0.04092937 38.66705225 -0.04241723 41 0 C35.33333333 11.33333333 29.66666667 22.66666667 24 34 C21.69 34 19.38 34 17 34 C14.5736679 29.48213318 12.15273558 24.96143198 9.73681641 20.43798828 C8.91376072 18.89877991 8.08922106 17.36036412 7.26318359 15.82275391 C6.07781504 13.61566312 4.89776907 11.40580019 3.71875 9.1953125 C3.34689575 8.50567413 2.9750415 7.81603577 2.59191895 7.10549927 C0 2.22774341 0 2.22774341 0 0 Z " transform="translate(2114 1894)" fill="#e1b857" class="svgShape color000000-22 selectable"></path><path d="M0 0 C3.62654437 -0.64341916 5.51221174 -0.9474902 9 0 C12.82801948 3.30675726 15.85254336 7.03741753 19 11 C19.66 11.66 20.32 12.32 21 13 C21.70125 12.0615625 22.4025 11.123125 23.125 10.15625 C24.08204437 8.93648756 25.04045033 7.71779258 26 6.5 C26.45761719 5.87996094 26.91523437 5.25992187 27.38671875 4.62109375 C30.93273692 0.20071494 30.93273692 0.20071494 34.16015625 -0.40625 C36.375 -0.40625 36.375 -0.40625 40 0 C38.71278496 2.80881509 37.34136259 4.92788567 35.21484375 7.1640625 C34.41916992 8.01097656 34.41916992 8.01097656 33.60742188 8.875 C33.05634766 9.4525 32.50527344 10.03 31.9375 10.625 C26.69921664 16.14922914 24.86687547 18.99478673 24.4375 26.625 C24.39431641 27.33140625 24.35113281 28.0378125 24.30664062 28.765625 C24.20055249 30.51018537 24.09977111 32.25506697 24 34 C21.69 34 19.38 34 17 34 C17.03222656 33.03320312 17.06445312 32.06640625 17.09765625 31.0703125 C17.0336365 23.88587338 16.96217254 19.08152081 11.875 13.5625 C10.26686901 12.02384027 8.6420755 10.50238047 7 9 C5.62512177 7.49786444 4.26877912 5.97840794 2.9375 4.4375 C2.36902344 3.79683594 1.80054688 3.15617187 1.21484375 2.49609375 C0 1 0 1 0 0 Z " transform="translate(1793 1894)" fill="#e1b857" class="svgShape color000000-23 selectable"></path><path d="M0 0 C12.21 0 24.42 0 37 0 C37 1.65 37 3.3 37 5 C32.05 5 27.1 5 22 5 C22 14.57 22 24.14 22 34 C19.69 34 17.38 34 15 34 C15 24.43 15 14.86 15 5 C10.05 5 5.1 5 0 5 C0 3.35 0 1.7 0 0 Z " transform="translate(1523 1894)" fill="#e1b857" class="svgShape color000000-24 selectable"></path><path d="M0 0 C2.31 0 4.62 0 7 0 C7 9.24 7 18.48 7 28 C15.25 28 23.5 28 32 28 C32 29.98 32 31.96 32 34 C21.44 34 10.88 34 0 34 C0 22.78 0 11.56 0 0 Z " transform="translate(1474 1894)" fill="#e1b857" class="svgShape color000000-25 selectable"></path><path d="M0 0 C2.31 0 4.62 0 7 0 C7 11.22 7 22.44 7 34 C4.69 34 2.38 34 0 34 C0 22.78 0 11.56 0 0 Z " transform="translate(2186 1894)" fill="#e1b857" class="svgShape color000000-26 selectable"></path></svg></g></svg>