<svg width="624" height="201" viewBox="0 0 624 201" fill="none" xmlns="http://www.w3.org/2000/svg">
<path fill-rule="evenodd" clip-rule="evenodd" d="M278.62 46.49L212.31 131.45L211.58 127.21L203.49 80.53C203.26 79.22 202.79 76.5 202 75.85C201.94 75.8 201.85 75.75 201.75 75.71C200.78 75.37 198.1 75.94 193.76 78.94C155.38 105.38 115.64 130.89 75.61 154.78C75.08 155.1 74.55 155.41 74.02 155.73C71.25 157.38 68.22 159.19 64.98 160.93C59.67 163.79 53.8 166.48 47.57 168.06C43.7 169.04 39.85 169.52 36.13 169.52C28.71 169.52 21.8 167.6 16.27 163.87C10.34 159.87 5.98999 153.84 3.67999 146.42C1.54999 139.57 1.4 132.01 3.25 125.13C6.56 112.84 15.55 101.9 28.56 94.32C31.73 92.47 35.21 90.86 38.84 89.44C39.02 87.38 39.28 85.33 39.61 83.29C40.74 76.28 42.7 69.45 45.49 62.86C49.98 52.25 56.4 42.73 64.58 34.55C72.76 26.37 82.28 19.95 92.89 15.46C103.88 10.81 115.54 8.46001 127.57 8.46001C139.6 8.46001 151.26 10.82 162.25 15.46C172.86 19.95 182.39 26.37 190.56 34.55C197.91 41.9 203.84 50.34 208.22 59.67C206.05 58.79 203.71 58.34 201.28 58.34C199.19 58.34 197.02 58.67 194.79 59.33C181.47 35.98 156.33 20.21 127.57 20.21C91.17 20.21 60.57 45.49 52.39 79.41C51.91 81.38 51.51 83.38 51.2 85.4C56.66 83.89 62.08 82.68 66.98 81.64V93.45C61.44 94.63 55.77 95.96 50.25 97.72C46.26 98.99 42.35 100.48 38.63 102.3C37.23 102.98 35.86 103.71 34.52 104.49C24.36 110.41 17.11 119.05 14.65 128.19C11.96 138.17 15.42 149.07 22.88 154.1C28.41 157.83 36.36 158.75 44.7 156.64C48.91 155.57 53.02 153.84 56.96 151.85C55.83 150.38 54.74 148.88 53.71 147.35C50.51 142.6 47.76 137.55 45.51 132.22C42.25 124.51 40.12 116.47 39.14 108.21C42.71 106.31 46.53 104.74 50.48 103.43C51.54 117.54 56.41 130.61 64.06 141.6C65.11 143.11 66.21 144.58 67.37 146.01C67.59 145.88 67.81 145.75 68.03 145.62C108.38 121.58 148.45 95.88 187.12 69.25C191.05 66.54 194.47 65.02 197.42 64.32C203.07 62.98 207 64.66 209.57 66.79C210.72 67.75 211.62 68.84 212.33 69.98C214.17 72.95 214.75 76.28 215.14 78.53L219.42 103.26L269.37 39.26L278.66 46.51L278.62 46.49Z" fill="#E1C58D"/>
<path d="M203.45 112.42C196.49 147.96 165.11 174.87 127.56 174.87C109.66 174.87 93.17 168.76 80.05 158.51C78.98 159.15 77.9 159.79 76.83 160.43C74.47 161.84 71.93 163.35 69.22 164.85C76.29 170.99 84.23 175.94 92.88 179.61C103.87 184.26 115.53 186.61 127.56 186.61C139.59 186.61 151.25 184.25 162.24 179.61C172.85 175.12 182.38 168.7 190.55 160.52C197.59 153.48 203.32 145.45 207.64 136.59L203.45 112.42Z" fill="#E1C58D"/>
<path fill-rule="evenodd" clip-rule="evenodd" d="M278.62 46.49L212.31 131.45L211.58 127.21L203.49 80.53C203.26 79.22 202.79 76.5 202 75.85C201.94 75.8 201.85 75.75 201.75 75.71C200.78 75.37 198.1 75.94 193.76 78.94C155.38 105.38 115.64 130.89 75.61 154.78C75.08 155.1 74.55 155.41 74.02 155.73C71.25 157.38 68.22 159.19 64.98 160.93C59.67 163.79 53.8 166.48 47.57 168.06C43.7 169.04 39.85 169.52 36.13 169.52C28.71 169.52 21.8 167.6 16.27 163.87C10.34 159.87 5.98999 153.84 3.67999 146.42C1.54999 139.57 1.4 132.01 3.25 125.13C6.56 112.84 15.55 101.9 28.56 94.32C31.73 92.47 35.21 90.86 38.84 89.44C39.02 87.38 39.28 85.33 39.61 83.29C40.74 76.28 42.7 69.45 45.49 62.86C49.98 52.25 56.4 42.73 64.58 34.55C72.76 26.37 82.28 19.95 92.89 15.46C103.88 10.81 115.54 8.46001 127.57 8.46001C139.6 8.46001 151.26 10.82 162.25 15.46C172.86 19.95 182.39 26.37 190.56 34.55C197.91 41.9 203.84 50.34 208.22 59.67C206.05 58.79 203.71 58.34 201.28 58.34C199.19 58.34 197.02 58.67 194.79 59.33C181.47 35.98 156.33 20.21 127.57 20.21C91.17 20.21 60.57 45.49 52.39 79.41C51.91 81.38 51.51 83.38 51.2 85.4C56.66 83.89 62.08 82.68 66.98 81.64V93.45C61.44 94.63 55.77 95.96 50.25 97.72C46.26 98.99 42.35 100.48 38.63 102.3C37.23 102.98 35.86 103.71 34.52 104.49C24.36 110.41 17.11 119.05 14.65 128.19C11.96 138.17 15.42 149.07 22.88 154.1C28.41 157.83 36.36 158.75 44.7 156.64C48.91 155.57 53.02 153.84 56.96 151.85C55.83 150.38 54.74 148.88 53.71 147.35C50.51 142.6 47.76 137.55 45.51 132.22C42.25 124.51 40.12 116.47 39.14 108.21C42.71 106.31 46.53 104.74 50.48 103.43C51.54 117.54 56.41 130.61 64.06 141.6C65.11 143.11 66.21 144.58 67.37 146.01C67.59 145.88 67.81 145.75 68.03 145.62C108.38 121.58 148.45 95.88 187.12 69.25C191.05 66.54 194.47 65.02 197.42 64.32C203.07 62.98 207 64.66 209.57 66.79C210.72 67.75 211.62 68.84 212.33 69.98C214.17 72.95 214.75 76.28 215.14 78.53L219.42 103.26L269.37 39.26L278.66 46.51L278.62 46.49Z" fill="#E1B858"/>
<path fill-rule="evenodd" clip-rule="evenodd" d="M203.45 112.42C196.49 147.96 165.11 174.87 127.56 174.87C109.66 174.87 93.17 168.76 80.05 158.51C78.98 159.15 77.9 159.79 76.83 160.43C74.47 161.84 71.93 163.35 69.22 164.85C76.29 170.99 84.23 175.94 92.88 179.61C103.87 184.26 115.53 186.61 127.56 186.61C139.59 186.61 151.25 184.25 162.24 179.61C172.85 175.12 182.38 168.7 190.55 160.52C197.59 153.48 203.32 145.45 207.64 136.59L203.45 112.42Z" fill="#E1B858"/>
<path d="M281.462 163.33V175.604H287.551V171.371L289.013 171.961V173.963C289.013 177.114 288.554 177.967 286.973 177.967H282.058C280.476 177.967 280 177.081 280 173.963V165.037C280 161.919 280.476 161.033 282.058 161.033H286.973C288.554 161.033 289.013 161.886 289.013 165.037V166.645L287.551 167.17V163.33H281.462Z" fill="#CFCFCE"/>
<path d="M300.628 161.033H306.7C308.281 161.033 308.74 161.919 308.74 165.037V173.963C308.74 177.081 308.281 177.967 306.7 177.967H300.628C299.064 177.967 298.571 177.114 298.571 173.963V165.037C298.571 161.886 299.064 161.033 300.628 161.033ZM307.295 175.604V163.33H300.016V175.604H307.295Z" fill="#CFCFCE"/>
<path d="M318.995 161.033H319.913L326.478 172.355C326.784 172.88 327.124 173.602 327.481 174.488C327.345 172.913 327.345 171.535 327.345 170.32V161.033H328.689V178H327.872L321.121 166.218C320.866 165.759 320.526 165.266 320.237 164.315C320.322 165.562 320.339 166.776 320.339 168.023V178H318.995V161.033Z" fill="#CFCFCE"/>
<path d="M340.338 163.33V168.056H345.865C347.463 168.056 347.905 169.008 347.905 172.06V173.963C347.905 177.081 347.446 177.967 345.865 177.967H340.746C339.164 177.967 338.688 177.081 338.688 173.963V173.504L340.049 172.88V175.604H346.579V170.517H341.069C339.504 170.517 339.028 169.664 339.028 166.513V165.037C339.028 161.886 339.504 161.033 341.069 161.033H345.746C347.208 161.033 347.803 161.82 347.803 164.741V165.102L346.545 165.791V163.33H340.338Z" fill="#CFCFCE"/>
<path d="M359.606 175.604H366V161H367.446V173.93C367.446 177.048 366.986 177.934 365.405 177.934H360.201C358.636 177.934 358.143 177.081 358.143 173.93V161H359.606V175.604Z" fill="#CFCFCE"/>
<path d="M377.819 161.033H379.282V175.637H385.931V178H377.802V161.033H377.819Z" fill="#CFCFCE"/>
<path d="M396.254 177.967H394.791V163.297H390.778V161H400.301V163.297H396.271V177.967H396.254Z" fill="#CFCFCE"/>
<path d="M410.369 161.033H411.934L416.814 178H415.199L414.076 173.832H408.141L407.019 178H405.573L410.369 161.033ZM413.481 171.633L411.117 162.969L408.753 171.633H413.481Z" fill="#CFCFCE"/>
<path d="M425.453 161.033H426.372L432.936 172.355C433.242 172.88 433.582 173.602 433.94 174.488C433.804 172.913 433.804 171.535 433.804 170.32V161.033H435.147V178H434.331L427.579 166.218C427.324 165.759 426.984 165.266 426.695 164.315C426.78 165.562 426.797 166.776 426.797 168.023V178H425.453V161.033Z" fill="#CFCFCE"/>
<path d="M446.864 163.33V175.604H452.952V171.371L454.415 171.961V173.963C454.415 177.114 453.956 177.967 452.374 177.967H447.459C445.878 177.967 445.402 177.081 445.402 173.963V165.037C445.402 161.919 445.878 161.033 447.459 161.033H452.374C453.956 161.033 454.415 161.886 454.415 165.037V166.645L452.952 167.17V163.33H446.864Z" fill="#CFCFCE"/>
<path d="M467.102 170.583L462.646 161.033H464.466L467.901 168.581L471.183 161.033H472.969L468.564 170.517V177.967H467.102V170.583Z" fill="#CFCFCE"/>
<path d="M495.043 163.33V168.056H500.57C502.168 168.056 502.61 169.008 502.61 172.06V173.963C502.61 177.081 502.151 177.967 500.57 177.967H495.451C493.869 177.967 493.393 177.081 493.393 173.963V173.504L494.753 172.88V175.604H501.284V170.517H495.774C494.209 170.517 493.733 169.664 493.733 166.513V165.037C493.733 161.886 494.209 161.033 495.774 161.033H500.451C501.913 161.033 502.508 161.82 502.508 164.741V165.102L501.25 165.791V163.33H495.043Z" fill="#CFCFCE"/>
<path d="M512.848 161.033H521.317V163.297H514.31V168.023H518.579V170.255H514.31V175.637H521.385V177.967H512.848V161V161.033Z" fill="#CFCFCE"/>
<path d="M530.653 161.033H537.745C539.02 161.033 539.599 161.952 539.599 164.315V168.089C539.599 170.452 539.02 171.371 537.745 171.371H536.453L540.466 177.967H538.289L534.718 171.371H532.133V177.967H530.67V161L530.653 161.033ZM532.116 163.232V169.172H537.15C537.796 169.172 538.102 168.876 538.102 167.432V164.971C538.102 163.56 537.796 163.232 537.15 163.232H532.116Z" fill="#CFCFCE"/>
<path d="M547.711 161.033H549.292L553.17 175.178L556.877 161.033H558.322L553.731 178H552.506L547.711 161.033Z" fill="#CFCFCE"/>
<path d="M566.962 161.033H568.424V178H566.962V161.033Z" fill="#CFCFCE"/>
<path d="M580.124 163.33V175.604H586.213V171.371L587.675 171.961V173.963C587.675 177.114 587.216 177.967 585.634 177.967H580.72C579.138 177.967 578.662 177.081 578.662 173.963V165.037C578.662 161.919 579.138 161.033 580.72 161.033H585.634C587.216 161.033 587.675 161.886 587.675 165.037V166.645L586.213 167.17V163.33H580.124Z" fill="#CFCFCE"/>
<path d="M597.334 161.033H605.804V163.297H598.797V168.023H603.066V170.255H598.797V175.637H605.872V177.967H597.334V161V161.033Z" fill="#CFCFCE"/>
<path d="M616.432 163.33V168.056H621.959C623.558 168.056 624 169.008 624 172.06V173.963C624 177.081 623.541 177.967 621.959 177.967H616.84C615.259 177.967 614.783 177.081 614.783 173.963V173.504L616.143 172.88V175.604H622.674V170.517H617.164C615.599 170.517 615.123 169.664 615.123 166.513V165.037C615.123 161.886 615.599 161.033 617.164 161.033H621.84C623.303 161.033 623.898 161.82 623.898 164.741V165.102L622.64 165.791V163.33H616.432Z" fill="#CFCFCE"/>
<path d="M281.462 163.33V175.604H287.551V171.371L289.013 171.961V173.963C289.013 177.114 288.554 177.967 286.973 177.967H282.058C280.476 177.967 280 177.081 280 173.963V165.037C280 161.919 280.476 161.033 282.058 161.033H286.973C288.554 161.033 289.013 161.886 289.013 165.037V166.645L287.551 167.17V163.33H281.462Z" fill="#111111" fill-opacity="0.0666667"/>
<path d="M300.628 161.033H306.7C308.281 161.033 308.74 161.919 308.74 165.037V173.963C308.74 177.081 308.281 177.967 306.7 177.967H300.628C299.064 177.967 298.571 177.114 298.571 173.963V165.037C298.571 161.886 299.064 161.033 300.628 161.033ZM307.295 175.604V163.33H300.016V175.604H307.295Z" fill="#111111" fill-opacity="0.0666667"/>
<path d="M318.995 161.033H319.913L326.478 172.355C326.784 172.88 327.124 173.602 327.481 174.488C327.345 172.913 327.345 171.535 327.345 170.32V161.033H328.689V178H327.872L321.121 166.218C320.866 165.759 320.526 165.266 320.237 164.315C320.322 165.562 320.339 166.776 320.339 168.023V178H318.995V161.033Z" fill="#111111" fill-opacity="0.0666667"/>
<path d="M340.338 163.33V168.056H345.865C347.463 168.056 347.905 169.008 347.905 172.06V173.963C347.905 177.081 347.446 177.967 345.865 177.967H340.746C339.164 177.967 338.688 177.081 338.688 173.963V173.504L340.049 172.88V175.604H346.579V170.517H341.069C339.504 170.517 339.028 169.664 339.028 166.513V165.037C339.028 161.886 339.504 161.033 341.069 161.033H345.746C347.208 161.033 347.803 161.82 347.803 164.741V165.102L346.545 165.791V163.33H340.338Z" fill="#111111" fill-opacity="0.0666667"/>
<path d="M359.606 175.604H366V161H367.446V173.93C367.446 177.048 366.986 177.934 365.405 177.934H360.201C358.636 177.934 358.143 177.081 358.143 173.93V161H359.606V175.604Z" fill="#111111" fill-opacity="0.0666667"/>
<path d="M377.819 161.033H379.282V175.637H385.931V178H377.802V161.033H377.819Z" fill="#111111" fill-opacity="0.0666667"/>
<path d="M396.254 177.967H394.791V163.297H390.778V161H400.301V163.297H396.271V177.967H396.254Z" fill="#111111" fill-opacity="0.0666667"/>
<path d="M410.369 161.033H411.934L416.814 178H415.199L414.076 173.832H408.141L407.019 178H405.573L410.369 161.033ZM413.481 171.633L411.117 162.969L408.753 171.633H413.481Z" fill="#111111" fill-opacity="0.0666667"/>
<path d="M425.453 161.033H426.372L432.936 172.355C433.242 172.88 433.582 173.602 433.94 174.488C433.804 172.913 433.804 171.535 433.804 170.32V161.033H435.147V178H434.331L427.579 166.218C427.324 165.759 426.984 165.266 426.695 164.315C426.78 165.562 426.797 166.776 426.797 168.023V178H425.453V161.033Z" fill="#111111" fill-opacity="0.0666667"/>
<path d="M446.864 163.33V175.604H452.952V171.371L454.415 171.961V173.963C454.415 177.114 453.956 177.967 452.374 177.967H447.459C445.878 177.967 445.402 177.081 445.402 173.963V165.037C445.402 161.919 445.878 161.033 447.459 161.033H452.374C453.956 161.033 454.415 161.886 454.415 165.037V166.645L452.952 167.17V163.33H446.864Z" fill="#111111" fill-opacity="0.0666667"/>
<path d="M467.102 170.583L462.646 161.033H464.466L467.901 168.581L471.183 161.033H472.969L468.564 170.517V177.967H467.102V170.583Z" fill="#111111" fill-opacity="0.0666667"/>
<path d="M495.043 163.33V168.056H500.57C502.168 168.056 502.61 169.008 502.61 172.06V173.963C502.61 177.081 502.151 177.967 500.57 177.967H495.451C493.869 177.967 493.393 177.081 493.393 173.963V173.504L494.753 172.88V175.604H501.284V170.517H495.774C494.209 170.517 493.733 169.664 493.733 166.513V165.037C493.733 161.886 494.209 161.033 495.774 161.033H500.451C501.913 161.033 502.508 161.82 502.508 164.741V165.102L501.25 165.791V163.33H495.043Z" fill="#111111" fill-opacity="0.0666667"/>
<path d="M512.848 161.033H521.317V163.297H514.31V168.023H518.579V170.255H514.31V175.637H521.385V177.967H512.848V161V161.033Z" fill="#111111" fill-opacity="0.0666667"/>
<path d="M530.653 161.033H537.745C539.02 161.033 539.599 161.952 539.599 164.315V168.089C539.599 170.452 539.02 171.371 537.745 171.371H536.453L540.466 177.967H538.289L534.718 171.371H532.133V177.967H530.67V161L530.653 161.033ZM532.116 163.232V169.172H537.15C537.796 169.172 538.102 168.876 538.102 167.432V164.971C538.102 163.56 537.796 163.232 537.15 163.232H532.116Z" fill="#111111" fill-opacity="0.0666667"/>
<path d="M547.711 161.033H549.292L553.17 175.178L556.877 161.033H558.322L553.731 178H552.506L547.711 161.033Z" fill="#111111" fill-opacity="0.0666667"/>
<path d="M566.962 161.033H568.424V178H566.962V161.033Z" fill="#111111" fill-opacity="0.0666667"/>
<path d="M580.124 163.33V175.604H586.213V171.371L587.675 171.961V173.963C587.675 177.114 587.216 177.967 585.634 177.967H580.72C579.138 177.967 578.662 177.081 578.662 173.963V165.037C578.662 161.919 579.138 161.033 580.72 161.033H585.634C587.216 161.033 587.675 161.886 587.675 165.037V166.645L586.213 167.17V163.33H580.124Z" fill="#111111" fill-opacity="0.0666667"/>
<path d="M597.334 161.033H605.804V163.297H598.797V168.023H603.066V170.255H598.797V175.637H605.872V177.967H597.334V161V161.033Z" fill="#111111" fill-opacity="0.0666667"/>
<path d="M616.432 163.33V168.056H621.959C623.558 168.056 624 169.008 624 172.06V173.963C624 177.081 623.541 177.967 621.959 177.967H616.84C615.259 177.967 614.783 177.081 614.783 173.963V173.504L616.143 172.88V175.604H622.674V170.517H617.164C615.599 170.517 615.123 169.664 615.123 166.513V165.037C615.123 161.886 615.599 161.033 617.164 161.033H621.84C623.303 161.033 623.898 161.82 623.898 164.741V165.102L622.64 165.791V163.33H616.432Z" fill="#111111" fill-opacity="0.0666667"/>
<path d="M335.677 137.463C335.677 142.56 334.567 145.999 332.331 147.782C330.424 149.314 326.828 150.08 321.543 150.08H292.134C286.849 150.08 283.253 149.314 281.346 147.782C279.11 145.999 278 142.56 278 137.463V113.401C278 108.304 279.11 104.864 281.346 103.082C283.253 101.549 286.849 100.783 292.134 100.783H321.543C326.828 100.783 330.424 101.549 332.331 103.082C334.567 104.864 335.677 108.304 335.677 113.401V119.232L320.402 121.531V112.556H293.275V137.963H320.402V127.644L335.677 130.599V137.478V137.463Z" fill="#010101"/>
<path d="M410.943 150.064H393.651L387.632 140.042H358.785L353.047 150.064H337.194L367.275 100.783H380.455L410.928 150.064H410.943ZM380.956 128.285L373.514 115.199L365.774 128.285H380.956Z" fill="#010101"/>
<path d="M477.595 150.064H467.182L430.409 121.312C430.284 121.249 430.096 121.124 429.83 120.937C429.893 121.703 429.924 122.344 429.924 122.844V150.064H415.79V100.783H426.203L461.444 128.097C461.882 128.473 462.585 129.02 463.539 129.723V128.285C463.477 127.581 463.445 127.081 463.445 126.753V100.783H477.579V150.064H477.595Z" fill="#010101"/>
<path d="M495.262 100.783H534.991C542.151 100.783 545.404 103.457 545.404 110.336V116.074C545.404 120.186 544.059 123.626 537.195 124.486C542.73 125.158 545.701 128.504 545.701 134.132V140.433C545.701 147.016 541.119 150.08 532.036 150.08H495.262V100.799V100.783ZM537.008 111.665C537.008 108.132 535.475 107.366 531.942 107.366H503.486V121.03H531.942C535.475 121.03 537.008 120.077 537.008 116.637V111.665ZM537.383 133.351C537.383 128.77 535.944 127.425 531.942 127.425H503.486V143.279H531.942C536.054 143.279 537.383 141.934 537.383 137.447V133.335V133.351Z" fill="#010101"/>
<path d="M555.91 100.783H564.118V150.064H555.91V100.783Z" fill="#010101"/>
<path d="M574.344 146.718L610.82 107.459H577.486V100.768H624V103.535L586.852 143.169H624V150.049H574.344V146.703V146.718Z" fill="#010101"/>
<path d="M335.677 137.463C335.677 142.56 334.567 145.999 332.331 147.782C330.424 149.314 326.828 150.08 321.543 150.08H292.134C286.849 150.08 283.253 149.314 281.346 147.782C279.11 145.999 278 142.56 278 137.463V113.401C278 108.304 279.11 104.864 281.346 103.082C283.253 101.549 286.849 100.783 292.134 100.783H321.543C326.828 100.783 330.424 101.549 332.331 103.082C334.567 104.864 335.677 108.304 335.677 113.401V119.232L320.402 121.531V112.556H293.275V137.963H320.402V127.644L335.677 130.599V137.478V137.463Z" fill="#E1B857"/>
<path d="M410.943 150.064H393.651L387.632 140.042H358.785L353.047 150.064H337.194L367.275 100.783H380.455L410.928 150.064H410.943ZM380.956 128.285L373.514 115.199L365.774 128.285H380.956Z" fill="#E1B857"/>
<path d="M477.595 150.064H467.182L430.409 121.312C430.284 121.249 430.096 121.124 429.83 120.937C429.893 121.703 429.924 122.344 429.924 122.844V150.064H415.79V100.783H426.203L461.444 128.097C461.882 128.473 462.585 129.02 463.539 129.723V128.285C463.477 127.581 463.445 127.081 463.445 126.753V100.783H477.579V150.064H477.595Z" fill="#E1B857"/>
<path d="M495.262 100.783H534.991C542.151 100.783 545.404 103.457 545.404 110.336V116.074C545.404 120.186 544.059 123.626 537.195 124.486C542.73 125.158 545.701 128.504 545.701 134.132V140.433C545.701 147.016 541.119 150.08 532.036 150.08H495.262V100.799V100.783ZM537.008 111.665C537.008 108.132 535.475 107.366 531.942 107.366H503.486V121.03H531.942C535.475 121.03 537.008 120.077 537.008 116.637V111.665ZM537.383 133.351C537.383 128.77 535.944 127.425 531.942 127.425H503.486V143.279H531.942C536.054 143.279 537.383 141.934 537.383 137.447V133.335V133.351Z" fill="#E1B857"/>
<path d="M555.91 100.783H564.118V150.064H555.91V100.783Z" fill="#E1B857"/>
<path d="M574.344 146.718L610.82 107.459H577.486V100.768H624V103.535L586.852 143.169H624V150.049H574.344V146.703V146.718Z" fill="#E1B857"/>
</svg>
